# unit disk, 817 nodes, 96 of them on the circle r = 1; nodes of Barnett (2015), University of Colorado Boulder thesis, figure 4.12, taken from the vector figure
817 2 0 1
0 1.0 0.0 1
1 0.9978589232386035 0.06540312923014306 1
2 0.9914448613738104 0.13052619222005157 1
3 0.9807852804032304 0.19509032201612825 1
4 0.9659258262890683 0.25881904510252074 1
5 0.9469301294951057 0.3214394653031616 1
6 0.9238795325112867 0.3826834323650898 1
7 0.8968727415326884 0.44228869021900125 1
8 0.8660254037844387 0.49999999999999994 1
9 0.8314696123025452 0.5555702330196022 1
10 0.7933533402912352 0.6087614290087207 1
11 0.7518398074789774 0.6593458151000688 1
12 0.7071067811865476 0.7071067811865475 1
13 0.6593458151000688 0.7518398074789774 1
14 0.6087614290087207 0.7933533402912352 1
15 0.5555702330196024 0.8314696123025451 1
16 0.5000000000000001 0.8660254037844386 1
17 0.44228869021900125 0.8968727415326884 1
18 0.38268343236508984 0.9238795325112867 1
19 0.3214394653031617 0.9469301294951056 1
20 0.25881904510252074 0.9659258262890683 1
21 0.19509032201612833 0.9807852804032304 1
22 0.1305261922200517 0.9914448613738104 1
23 0.06540312923014327 0.9978589232386035 1
24 6.123233995736766e-17 1.0 1
25 -0.06540312923014314 0.9978589232386035 1
26 -0.1305261922200516 0.9914448613738104 1
27 -0.1950903220161282 0.9807852804032304 1
28 -0.25881904510252063 0.9659258262890683 1
29 -0.3214394653031616 0.9469301294951057 1
30 -0.3826834323650895 0.9238795325112868 1
31 -0.44228869021900113 0.8968727415326884 1
32 -0.4999999999999998 0.8660254037844387 1
33 -0.5555702330196023 0.8314696123025451 1
34 -0.6087614290087207 0.7933533402912352 1
35 -0.6593458151000688 0.7518398074789774 1
36 -0.7071067811865475 0.7071067811865476 1
37 -0.7518398074789773 0.659345815100069 1
38 -0.793353340291235 0.6087614290087209 1
39 -0.831469612302545 0.5555702330196025 1
40 -0.8660254037844387 0.49999999999999994 1
41 -0.8968727415326881 0.4422886902190017 1
42 -0.9238795325112867 0.3826834323650899 1
43 -0.9469301294951056 0.32143946530316175 1
44 -0.9659258262890682 0.258819045102521 1
45 -0.9807852804032304 0.19509032201612816 1
46 -0.9914448613738104 0.130526192220052 1
47 -0.9978589232386035 0.06540312923014312 1
48 -1.0 1.2246467991473532e-16 1
49 -0.9978589232386035 -0.06540312923014287 1
50 -0.9914448613738104 -0.13052619222005177 1
51 -0.9807852804032305 -0.19509032201612792 1
52 -0.9659258262890683 -0.2588190451025208 1
53 -0.9469301294951057 -0.32143946530316153 1
54 -0.9238795325112868 -0.38268343236508967 1
55 -0.8968727415326883 -0.44228869021900147 1
56 -0.8660254037844388 -0.4999999999999997 1
57 -0.8314696123025455 -0.555570233019602 1
58 -0.7933533402912352 -0.6087614290087207 1
59 -0.7518398074789775 -0.6593458151000688 1
60 -0.7071067811865479 -0.7071067811865471 1
61 -0.6593458151000691 -0.7518398074789773 1
62 -0.6087614290087209 -0.7933533402912349 1
63 -0.5555702330196022 -0.8314696123025452 1
64 -0.5000000000000004 -0.8660254037844384 1
65 -0.44228869021900136 -0.8968727415326883 1
66 -0.3826834323650895 -0.9238795325112868 1
67 -0.3214394653031618 -0.9469301294951056 1
68 -0.25881904510252063 -0.9659258262890683 1
69 -0.19509032201612866 -0.9807852804032303 1
70 -0.13052619222005163 -0.9914448613738104 1
71 -0.06540312923014273 -0.9978589232386035 1
72 -1.8369701987210297e-16 -1.0 1
73 0.06540312923014237 -0.9978589232386036 1
74 0.13052619222005127 -0.9914448613738105 1
75 0.1950903220161283 -0.9807852804032304 1
76 0.2588190451025203 -0.9659258262890684 1
77 0.3214394653031615 -0.9469301294951057 1
78 0.38268343236508917 -0.923879532511287 1
79 0.442288690219001 -0.8968727415326885 1
80 0.5000000000000001 -0.8660254037844386 1
81 0.5555702330196018 -0.8314696123025455 1
82 0.6087614290087199 -0.7933533402912357 1
83 0.6593458151000691 -0.7518398074789772 1
84 0.7071067811865474 -0.7071067811865477 1
85 0.7518398074789775 -0.6593458151000687 1
86 0.7933533402912349 -0.6087614290087209 1
87 0.8314696123025448 -0.555570233019603 1
88 0.8660254037844384 -0.5000000000000004 1
89 0.8968727415326883 -0.4422886902190014 1
90 0.9238795325112868 -0.38268343236508956 1
91 0.9469301294951056 -0.32143946530316186 1
92 0.9659258262890681 -0.25881904510252157 1
93 0.9807852804032303 -0.19509032201612872 1
94 0.9914448613738104 -0.13052619222005168 1
95 0.9978589232386035 -0.0654031292301428 1
96 0.0 -0.000325 0
97 0.062341 -0.000325 0
98 0.031171 0.054224 0
99 -0.031171 0.054224 0
100 -0.062341 -0.000325 0
101 -0.031171 -0.054223 0
102 0.031171 -0.054223 0
103 0.124682 -0.000325 0
104 0.108446 0.062667 0
105 0.062341 0.108121 0
106 0.0 0.125008 0
107 -0.062341 0.108121 0
108 -0.108446 0.062667 0
109 -0.124682 -0.000325 0
110 -0.108446 -0.062666 0
111 -0.062341 -0.108124 0
112 0.0 -0.125007 0
113 0.062341 -0.108124 0
114 0.108446 -0.062666 0
115 0.187674 -0.000325 0
116 0.175985 0.063965 0
117 0.143513 0.120461 0
118 0.093512 0.16267 0
119 0.032468 0.18475 0
120 -0.032468 0.18475 0
121 -0.093512 0.16267 0
122 -0.143513 0.120461 0
123 -0.175985 0.063965 0
124 -0.187674 -0.000325 0
125 -0.175985 -0.063963 0
126 -0.143513 -0.12046 0
127 -0.093512 -0.162673 0
128 -0.032468 -0.184749 0
129 0.032468 -0.184749 0
130 0.093512 -0.162673 0
131 0.143513 -0.12046 0
132 0.175985 -0.063963 0
133 0.250015 -0.000325 0
134 0.241571 0.064615 0
135 0.216246 0.125008 0
136 0.176632 0.176958 0
137 0.124682 0.216571 0
138 0.06494 0.241247 0
139 0.0 0.24969 0
140 -0.06494 0.241247 0
141 -0.124682 0.216571 0
142 -0.176632 0.176958 0
143 -0.216246 0.125008 0
144 -0.241572 0.064615 0
145 -0.250015 -0.000325 0
146 -0.241572 -0.064614 0
147 -0.216246 -0.125007 0
148 -0.176632 -0.176956 0
149 -0.124682 -0.216571 0
150 -0.06494 -0.241246 0
151 0.0 -0.249689 0
152 0.06494 -0.241246 0
153 0.124682 -0.216571 0
154 0.176632 -0.176956 0
155 0.216246 -0.125007 0
156 0.241571 -0.064614 0
157 0.312356 -0.000325 0
158 0.305861 0.065262 0
159 0.285728 0.126956 0
160 0.25261 0.183453 0
161 0.209104 0.232157 0
162 0.156503 0.270469 0
163 0.096757 0.297093 0
164 0.032468 0.31073 0
165 -0.032468 0.31073 0
166 -0.096757 0.297093 0
167 -0.156504 0.270469 0
168 -0.209104 0.232157 0
169 -0.25261 0.183453 0
170 -0.285729 0.126956 0
171 -0.305861 0.065262 0
172 -0.312356 0.000326 0
173 -0.305861 -0.065265 0
174 -0.285729 -0.126955 0
175 -0.25261 -0.183452 0
176 -0.209104 -0.232156 0
177 -0.156504 -0.270468 0
178 -0.096757 -0.297095 0
179 -0.032468 -0.310733 0
180 0.032468 -0.310733 0
181 0.096757 -0.297095 0
182 0.156503 -0.270468 0
183 0.209104 -0.232156 0
184 0.25261 -0.183452 0
185 0.285728 -0.126955 0
186 0.305861 -0.065265 0
187 0.374697 -0.000325 0
188 0.369499 0.065262 0
189 0.352617 0.128254 0
190 0.324692 0.187349 0
191 0.28703 0.241247 0
192 0.240921 0.287352 0
193 0.187674 0.325018 0
194 0.128579 0.352292 0
195 0.06494 0.369175 0
196 0.0 0.375019 0
197 -0.06494 0.369175 0
198 -0.128579 0.352292 0
199 -0.187674 0.325018 0
200 -0.240921 0.287352 0
201 -0.28703 0.241247 0
202 -0.324692 0.187349 0
203 -0.352617 0.128254 0
204 -0.3695 0.065262 0
205 -0.374697 -0.000325 0
206 -0.3695 -0.065265 0
207 -0.352617 -0.128253 0
208 -0.324692 -0.187348 0
209 -0.28703 -0.241246 0
210 -0.240921 -0.287355 0
211 -0.187674 -0.325017 0
212 -0.128579 -0.352291 0
213 -0.06494 -0.369177 0
214 0.0 -0.375022 0
215 0.06494 -0.369177 0
216 0.128579 -0.352291 0
217 0.187674 -0.325017 0
218 0.240921 -0.287355 0
219 0.28703 -0.241246 0
220 0.324692 -0.187348 0
221 0.352617 -0.128253 0
222 0.369499 -0.065265 0
223 0.437685 -0.000325 0
224 0.432491 0.065262 0
225 0.418204 0.128904 0
226 0.394179 0.189944 0
227 0.361707 0.246441 0
228 0.320795 0.297744 0
229 0.272742 0.3419 0
230 0.218844 0.378916 0
231 0.159749 0.407491 0
232 0.097408 0.426322 0
233 0.032468 0.436063 0
234 -0.032468 0.436063 0
235 -0.097408 0.426322 0
236 -0.159749 0.407491 0
237 -0.218845 0.378916 0
238 -0.272742 0.3419 0
239 -0.320795 0.297744 0
240 -0.361707 0.246441 0
241 -0.394179 0.189944 0
242 -0.418204 0.128904 0
243 -0.432491 0.065262 0
244 -0.437685 -0.000325 0
245 -0.432491 -0.065265 0
246 -0.418204 -0.128904 0
247 -0.394179 -0.189947 0
248 -0.361707 -0.246444 0
249 -0.320795 -0.297742 0
250 -0.272742 -0.341903 0
251 -0.218845 -0.378918 0
252 -0.159749 -0.40749 0
253 -0.097408 -0.426321 0
254 -0.032468 -0.436062 0
255 0.032468 -0.436062 0
256 0.097408 -0.426321 0
257 0.159749 -0.40749 0
258 0.218844 -0.378918 0
259 0.272742 -0.341903 0
260 0.320795 -0.297742 0
261 0.361707 -0.246444 0
262 0.394179 -0.189947 0
263 0.418204 -0.128904 0
264 0.432491 -0.065265 0
265 0.500026 -0.000325 0
266 0.495483 0.065262 0
267 0.483143 0.129551 0
268 0.461713 0.191245 0
269 0.433142 0.24969 0
270 0.396774 0.304239 0
271 0.353267 0.35359 0
272 0.304563 0.396449 0
273 0.250015 0.432817 0
274 0.19157 0.46204 0
275 0.129229 0.482819 0
276 0.065587 0.495805 0
277 0.0 0.499702 0
278 -0.065587 0.495805 0
279 -0.129229 0.482819 0
280 -0.19157 0.46204 0
281 -0.250015 0.432817 0
282 -0.304563 0.396449 0
283 -0.353268 0.35359 0
284 -0.396774 0.304239 0
285 -0.433142 0.24969 0
286 -0.461714 0.191245 0
287 -0.483143 0.129551 0
288 -0.495483 0.065262 0
289 -0.500026 -0.000325 0
290 -0.495483 -0.065265 0
291 -0.483143 -0.129554 0
292 -0.461714 -0.191244 0
293 -0.433142 -0.249689 0
294 -0.396774 -0.304238 0
295 -0.353268 -0.353592 0
296 -0.304563 -0.396452 0
297 -0.250015 -0.432816 0
298 -0.19157 -0.462038 0
299 -0.129229 -0.482818 0
300 -0.065587 -0.495808 0
301 0.0 -0.499704 0
302 0.065587 -0.495808 0
303 0.129229 -0.482818 0
304 0.19157 -0.462038 0
305 0.250015 -0.432816 0
306 0.304563 -0.396452 0
307 0.353267 -0.353592 0
308 0.396774 -0.304238 0
309 0.433142 -0.249689 0
310 0.461713 -0.191244 0
311 0.483143 -0.129554 0
312 0.495483 -0.065265 0
313 0.562367 -0.000325 0
314 0.558471 0.065262 0
315 0.547432 0.129551 0
316 0.528602 0.192543 0
317 0.502625 0.252285 0
318 0.470157 0.308782 0
319 0.431193 0.361382 0
320 0.385735 0.409439 0
321 0.335734 0.450997 0
322 0.281185 0.487365 0
323 0.222741 0.516588 0
324 0.161046 0.538664 0
325 0.097408 0.55425 0
326 0.032468 0.561396 0
327 -0.032468 0.561396 0
328 -0.097408 0.55425 0
329 -0.161047 0.538664 0
330 -0.222741 0.516588 0
331 -0.281186 0.487365 0
332 -0.335734 0.450997 0
333 -0.385736 0.409439 0
334 -0.431194 0.361382 0
335 -0.470157 0.308782 0
336 -0.502625 0.252285 0
337 -0.528602 0.192543 0
338 -0.547433 0.129551 0
339 -0.558471 0.065262 0
340 -0.562367 -0.000325 0
341 -0.558471 -0.065265 0
342 -0.547433 -0.129554 0
343 -0.528602 -0.192542 0
344 -0.502625 -0.252288 0
345 -0.470157 -0.308785 0
346 -0.431194 -0.361385 0
347 -0.385736 -0.409438 0
348 -0.335734 -0.451 0
349 -0.281186 -0.487364 0
350 -0.222741 -0.516587 0
351 -0.161047 -0.538667 0
352 -0.097408 -0.554252 0
353 -0.032468 -0.561395 0
354 0.032468 -0.561395 0
355 0.097408 -0.554252 0
356 0.161046 -0.538667 0
357 0.222741 -0.516587 0
358 0.281185 -0.487364 0
359 0.335734 -0.451 0
360 0.385735 -0.409438 0
361 0.431193 -0.361385 0
362 0.470157 -0.308785 0
363 0.502625 -0.252288 0
364 0.528602 -0.192542 0
365 0.547432 -0.129554 0
366 0.558471 -0.065265 0
367 0.624708 -0.000325 0
368 0.621462 0.065262 0
369 0.611071 0.130202 0
370 0.594188 0.193194 0
371 0.57081 0.254233 0
372 0.541588 0.312678 0
373 0.505871 0.367226 0
374 0.464312 0.418529 0
375 0.418204 0.464635 0
376 0.367551 0.505546 0
377 0.312356 0.541263 0
378 0.253911 0.571136 0
379 0.192868 0.594514 0
380 0.129876 0.611397 0
381 0.065587 0.621788 0
382 0.0 0.625034 0
383 -0.065587 0.621788 0
384 -0.129876 0.611397 0
385 -0.192868 0.594514 0
386 -0.253911 0.571136 0
387 -0.312356 0.541263 0
388 -0.367551 0.505546 0
389 -0.418204 0.464635 0
390 -0.464313 0.418529 0
391 -0.505871 0.367226 0
392 -0.541588 0.312678 0
393 -0.570811 0.254233 0
394 -0.594188 0.193194 0
395 -0.611071 0.130202 0
396 -0.621463 0.065262 0
397 -0.624709 0.000326 0
398 -0.621463 -0.065265 0
399 -0.611071 -0.130201 0
400 -0.594188 -0.193193 0
401 -0.570811 -0.254236 0
402 -0.541588 -0.312681 0
403 -0.505871 -0.367229 0
404 -0.464313 -0.418528 0
405 -0.418204 -0.464637 0
406 -0.367551 -0.505548 0
407 -0.312356 -0.541263 0
408 -0.253911 -0.571135 0
409 -0.192868 -0.594513 0
410 -0.129876 -0.611397 0
411 -0.065587 -0.621787 0
412 0.0 -0.625034 0
413 0.065587 -0.621787 0
414 0.129876 -0.611397 0
415 0.192868 -0.594513 0
416 0.253911 -0.571135 0
417 0.312356 -0.541263 0
418 0.367551 -0.505548 0
419 0.418204 -0.464637 0
420 0.464312 -0.418528 0
421 0.505871 -0.367229 0
422 0.541588 -0.312681 0
423 0.57081 -0.254236 0
424 0.594188 -0.193193 0
425 0.611071 -0.130201 0
426 0.621462 -0.065265 0
427 0.6877 -0.000325 0
428 0.684454 0.065262 0
429 0.67536 0.130202 0
430 0.659775 0.19384 0
431 0.638345 0.255535 0
432 0.611071 0.315277 0
433 0.578603 0.371774 0
434 0.54029 0.425024 0
435 0.497431 0.474375 0
436 0.450025 0.519834 0
437 0.398722 0.560094 0
438 0.343526 0.595161 0
439 0.285728 0.625685 0
440 0.224689 0.64971 0
441 0.162348 0.667894 0
442 0.098058 0.680233 0
443 0.032468 0.686725 0
444 -0.032468 0.686725 0
445 -0.098059 0.680233 0
446 -0.162348 0.667894 0
447 -0.224689 0.64971 0
448 -0.285729 0.625685 0
449 -0.343527 0.595161 0
450 -0.398722 0.560094 0
451 -0.450025 0.519834 0
452 -0.497431 0.474375 0
453 -0.540291 0.425024 0
454 -0.578603 0.371774 0
455 -0.611071 0.315277 0
456 -0.638345 0.255535 0
457 -0.659775 0.19384 0
458 -0.675361 0.130202 0
459 -0.684454 0.065262 0
460 -0.6877 -0.000325 0
461 -0.684454 -0.065265 0
462 -0.675361 -0.130201 0
463 -0.659775 -0.193843 0
464 -0.638345 -0.255534 0
465 -0.611071 -0.315276 0
466 -0.578603 -0.371773 0
467 -0.540291 -0.425023 0
468 -0.497431 -0.474378 0
469 -0.450025 -0.519833 0
470 -0.398722 -0.560096 0
471 -0.343527 -0.595163 0
472 -0.285729 -0.625684 0
473 -0.224689 -0.649712 0
474 -0.162348 -0.667894 0
475 -0.098059 -0.680232 0
476 -0.032468 -0.686727 0
477 0.032468 -0.686727 0
478 0.098058 -0.680232 0
479 0.162348 -0.667894 0
480 0.224689 -0.649712 0
481 0.285728 -0.625684 0
482 0.343526 -0.595163 0
483 0.398722 -0.560096 0
484 0.450025 -0.519833 0
485 0.497431 -0.474378 0
486 0.54029 -0.425023 0
487 0.578603 -0.371773 0
488 0.611071 -0.315276 0
489 0.638345 -0.255534 0
490 0.659775 -0.193843 0
491 0.67536 -0.130201 0
492 0.684454 -0.065265 0
493 0.750041 -0.000325 0
494 0.747442 0.065262 0
495 0.738352 0.130202 0
496 0.724715 0.19384 0
497 0.704583 0.256832 0
498 0.679907 0.317225 0
499 0.649387 0.375019 0
500 0.614321 0.430218 0
501 0.574707 0.482168 0
502 0.53055 0.530225 0
503 0.481846 0.574382 0
504 0.429892 0.614643 0
505 0.374697 0.64971 0
506 0.316899 0.679583 0
507 0.256506 0.704909 0
508 0.194165 0.72439 0
509 0.130527 0.738678 0
510 0.065587 0.747117 0
511 0.0 0.749716 0
512 -0.065587 0.747117 0
513 -0.130527 0.738678 0
514 -0.194165 0.72439 0
515 -0.256506 0.704909 0
516 -0.316899 0.679583 0
517 -0.374697 0.64971 0
518 -0.429892 0.614643 0
519 -0.481846 0.574382 0
520 -0.53055 0.530225 0
521 -0.574707 0.482168 0
522 -0.614321 0.430218 0
523 -0.649388 0.375019 0
524 -0.679908 0.317225 0
525 -0.704583 0.256832 0
526 -0.724715 0.19384 0
527 -0.738352 0.130202 0
528 -0.747442 0.065262 0
529 -0.750041 -0.000325 0
530 -0.747442 -0.065265 0
531 -0.738352 -0.130201 0
532 -0.724715 -0.193843 0
533 -0.704583 -0.256831 0
534 -0.679908 -0.317224 0
535 -0.649388 -0.375022 0
536 -0.614321 -0.430217 0
537 -0.574707 -0.482171 0
538 -0.53055 -0.530224 0
539 -0.481846 -0.574382 0
540 -0.429892 -0.614645 0
541 -0.374697 -0.649712 0
542 -0.316899 -0.679582 0
543 -0.256506 -0.704909 0
544 -0.194165 -0.72439 0
545 -0.130527 -0.738677 0
546 -0.065587 -0.747119 0
547 0.0 -0.749716 0
548 0.065587 -0.747119 0
549 0.130527 -0.738677 0
550 0.194165 -0.72439 0
551 0.256506 -0.704909 0
552 0.316899 -0.679582 0
553 0.374697 -0.649712 0
554 0.429892 -0.614645 0
555 0.481846 -0.574382 0
556 0.53055 -0.530224 0
557 0.574707 -0.482171 0
558 0.614321 -0.430217 0
559 0.649387 -0.375022 0
560 0.679907 -0.317224 0
561 0.704583 -0.256831 0
562 0.724715 -0.193843 0
563 0.738352 -0.130201 0
564 0.747442 -0.065265 0
565 0.812382 -0.000325 0
566 0.809783 0.065262 0
567 0.801991 0.130202 0
568 0.789004 0.194491 0
569 0.77082 0.257483 0
570 0.747442 0.318523 0
571 0.719521 0.377618 0
572 0.687049 0.434115 0
573 0.649387 0.488012 0
574 0.608476 0.538664 0
575 0.563018 0.586071 0
576 0.513663 0.629581 0
577 0.461713 0.668544 0
578 0.406514 0.703611 0
579 0.348069 0.734131 0
580 0.288327 0.759457 0
581 0.225986 0.780236 0
582 0.162348 0.795822 0
583 0.098058 0.806864 0
584 0.032468 0.812057 0
585 -0.032468 0.812057 0
586 -0.098059 0.806864 0
587 -0.162348 0.795822 0
588 -0.225987 0.780236 0
589 -0.288327 0.759457 0
590 -0.34807 0.734131 0
591 -0.406515 0.703611 0
592 -0.461714 0.668544 0
593 -0.513663 0.629581 0
594 -0.563018 0.586071 0
595 -0.608476 0.538664 0
596 -0.649388 0.488012 0
597 -0.68705 0.434115 0
598 -0.719521 0.377618 0
599 -0.747442 0.318523 0
600 -0.77082 0.257483 0
601 -0.789005 0.194491 0
602 -0.801991 0.130202 0
603 -0.809783 0.065262 0
604 -0.812382 -0.000325 0
605 -0.809783 -0.065265 0
606 -0.801991 -0.130201 0
607 -0.789005 -0.19449 0
608 -0.77082 -0.257481 0
609 -0.747442 -0.318525 0
610 -0.719521 -0.377617 0
611 -0.68705 -0.434114 0
612 -0.649388 -0.488015 0
613 -0.608476 -0.538667 0
614 -0.563018 -0.586071 0
615 -0.513663 -0.62958 0
616 -0.461714 -0.668543 0
617 -0.406515 -0.70361 0
618 -0.34807 -0.734131 0
619 -0.288327 -0.759457 0
620 -0.225987 -0.780238 0
621 -0.162348 -0.795824 0
622 -0.098059 -0.806863 0
623 -0.032468 -0.812057 0
624 0.032468 -0.812057 0
625 0.098058 -0.806863 0
626 0.162348 -0.795824 0
627 0.225986 -0.780238 0
628 0.288327 -0.759457 0
629 0.348069 -0.734131 0
630 0.406514 -0.70361 0
631 0.461713 -0.668543 0
632 0.513663 -0.62958 0
633 0.563018 -0.586071 0
634 0.608476 -0.538667 0
635 0.649387 -0.488015 0
636 0.687049 -0.434114 0
637 0.719521 -0.377617 0
638 0.747442 -0.318525 0
639 0.77082 -0.257481 0
640 0.789004 -0.19449 0
641 0.801991 -0.130201 0
642 0.809783 -0.065265 0
643 0.874723 -0.000325 0
644 0.872775 0.065262 0
645 0.864982 0.130202 0
646 0.853294 0.194491 0
647 0.836411 0.25813 0
648 0.81433 0.319824 0
649 0.788354 0.379566 0
650 0.757834 0.437361 0
651 0.722767 0.49321 0
652 0.683804 0.54581 0
653 0.641595 0.595161 0
654 0.595486 0.64127 0
655 0.545485 0.68413 0
656 0.492884 0.723093 0
657 0.437685 0.757509 0
658 0.379891 0.78868 0
659 0.319498 0.814656 0
660 0.257808 0.836086 0
661 0.194816 0.852969 0
662 0.130527 0.865308 0
663 0.065587 0.87245 0
664 0.0 0.875049 0
665 -0.065587 0.87245 0
666 -0.130527 0.865308 0
667 -0.194816 0.852969 0
668 -0.257808 0.836086 0
669 -0.319498 0.814656 0
670 -0.379891 0.78868 0
671 -0.437685 0.757509 0
672 -0.492884 0.723093 0
673 -0.545485 0.68413 0
674 -0.595486 0.64127 0
675 -0.641595 0.595161 0
676 -0.683804 0.54581 0
677 -0.722767 0.49321 0
678 -0.757834 0.437361 0
679 -0.788354 0.379566 0
680 -0.81433 0.319824 0
681 -0.836411 0.25813 0
682 -0.853294 0.194491 0
683 -0.864982 0.130202 0
684 -0.872775 0.065262 0
685 -0.874723 -0.000325 0
686 -0.872775 -0.065265 0
687 -0.864982 -0.130201 0
688 -0.853294 -0.19449 0
689 -0.836411 -0.258132 0
690 -0.81433 -0.319823 0
691 -0.788354 -0.379565 0
692 -0.757834 -0.437363 0
693 -0.722767 -0.493208 0
694 -0.683804 -0.545809 0
695 -0.641595 -0.595163 0
696 -0.595486 -0.641269 0
697 -0.545485 -0.684128 0
698 -0.492884 -0.723092 0
699 -0.437685 -0.757509 0
700 -0.379891 -0.788679 0
701 -0.319498 -0.814655 0
702 -0.257808 -0.836085 0
703 -0.194816 -0.852968 0
704 -0.130527 -0.865307 0
705 -0.065587 -0.87245 0
706 0.0 -0.875048 0
707 0.065587 -0.87245 0
708 0.130527 -0.865307 0
709 0.194816 -0.852968 0
710 0.257808 -0.836085 0
711 0.319498 -0.814655 0
712 0.379891 -0.788679 0
713 0.437685 -0.757509 0
714 0.492884 -0.723092 0
715 0.545485 -0.684128 0
716 0.595486 -0.641269 0
717 0.641595 -0.595163 0
718 0.683804 -0.545809 0
719 0.722767 -0.493208 0
720 0.757834 -0.437363 0
721 0.788354 -0.379565 0
722 0.81433 -0.319823 0
723 0.836411 -0.258132 0
724 0.853294 -0.19449 0
725 0.864982 -0.130201 0
726 0.872775 -0.065265 0
727 0.937715 -0.000325 0
728 0.935116 0.065262 0
729 0.928621 0.130202 0
730 0.916932 0.195142 0
731 0.901347 0.25813 0
732 0.881219 0.320471 0
733 0.856539 0.381514 0
734 0.827967 0.439959 0
735 0.794849 0.497106 0
736 0.758484 0.551004 0
737 0.71822 0.602307 0
738 0.674714 0.651011 0
739 0.627307 0.696466 0
740 0.577305 0.738678 0
741 0.524055 0.77699 0
742 0.468856 0.812057 0
743 0.411062 0.842578 0
744 0.351319 0.869205 0
745 0.289625 0.891932 0
746 0.226637 0.909465 0
747 0.162995 0.923102 0
748 0.098058 0.932193 0
749 0.032468 0.936739 0
750 -0.032468 0.936739 0
751 -0.098059 0.932193 0
752 -0.162995 0.923102 0
753 -0.226637 0.909465 0
754 -0.289625 0.891932 0
755 -0.351319 0.869205 0
756 -0.411061 0.842578 0
757 -0.468856 0.812057 0
758 -0.524055 0.77699 0
759 -0.577306 0.738678 0
760 -0.627307 0.696466 0
761 -0.674714 0.651011 0
762 -0.71822 0.602307 0
763 -0.758484 0.551004 0
764 -0.794849 0.497106 0
765 -0.827967 0.439959 0
766 -0.856539 0.381514 0
767 -0.881219 0.320471 0
768 -0.901348 0.25813 0
769 -0.916933 0.195142 0
770 -0.928622 0.130202 0
771 -0.935116 0.065262 0
772 -0.937714 0.000326 0
773 -0.935116 -0.065265 0
774 -0.928622 -0.130201 0
775 -0.916933 -0.195141 0
776 -0.901348 -0.258132 0
777 -0.881219 -0.320474 0
778 -0.856539 -0.381513 0
779 -0.827967 -0.439958 0
780 -0.794849 -0.497104 0
781 -0.758484 -0.551004 0
782 -0.71822 -0.602306 0
783 -0.674714 -0.65101 0
784 -0.627307 -0.696467 0
785 -0.577306 -0.738677 0
786 -0.524055 -0.776991 0
787 -0.468856 -0.812057 0
788 -0.411061 -0.842579 0
789 -0.351319 -0.869204 0
790 -0.289625 -0.891931 0
791 -0.226637 -0.909465 0
792 -0.162995 -0.923102 0
793 -0.098059 -0.932194 0
794 -0.032468 -0.936739 0
795 0.032468 -0.936739 0
796 0.098058 -0.932194 0
797 0.162995 -0.923102 0
798 0.226637 -0.909465 0
799 0.289625 -0.891931 0
800 0.351319 -0.869204 0
801 0.411062 -0.842579 0
802 0.468856 -0.812057 0
803 0.524055 -0.776991 0
804 0.577305 -0.738677 0
805 0.627307 -0.696467 0
806 0.674714 -0.65101 0
807 0.71822 -0.602306 0
808 0.758484 -0.551004 0
809 0.794849 -0.497104 0
810 0.827967 -0.439958 0
811 0.856539 -0.381513 0
812 0.881219 -0.320474 0
813 0.901347 -0.258132 0
814 0.916932 -0.195141 0
815 0.928621 -0.130201 0
816 0.935116 -0.065265 0
