# unit disk, 1501 nodes, 128 of them on the circle r = 1; nodes of Musavi and Ashrafizaadeh (2015), doi:10.1103/PhysRevE.91.023310, read off the paper's figures
1501 2 0 1
0 1.0 0.0 1
1 0.9987954562051724 0.049067674327418015 1
2 0.9951847266721969 0.0980171403295606 1
3 0.989176509964781 0.14673047445536175 1
4 0.9807852804032304 0.19509032201612825 1
5 0.970031253194544 0.24298017990326387 1
6 0.9569403357322088 0.29028467725446233 1
7 0.9415440651830208 0.33688985339222005 1
8 0.9238795325112867 0.3826834323650898 1
9 0.9039892931234433 0.4275550934302821 1
10 0.881921264348355 0.47139673682599764 1
11 0.8577286100002721 0.5141027441932217 1
12 0.8314696123025452 0.5555702330196022 1
13 0.8032075314806449 0.5956993044924334 1
14 0.773010453362737 0.6343932841636455 1
15 0.7409511253549591 0.6715589548470183 1
16 0.7071067811865476 0.7071067811865475 1
17 0.6715589548470183 0.7409511253549591 1
18 0.6343932841636455 0.773010453362737 1
19 0.5956993044924335 0.8032075314806448 1
20 0.5555702330196023 0.8314696123025452 1
21 0.5141027441932217 0.8577286100002721 1
22 0.4713967368259978 0.8819212643483549 1
23 0.4275550934302822 0.9039892931234433 1
24 0.38268343236508984 0.9238795325112867 1
25 0.33688985339222005 0.9415440651830208 1
26 0.29028467725446233 0.9569403357322089 1
27 0.24298017990326398 0.970031253194544 1
28 0.19509032201612833 0.9807852804032304 1
29 0.14673047445536175 0.989176509964781 1
30 0.09801714032956077 0.9951847266721968 1
31 0.049067674327418126 0.9987954562051724 1
32 6.123233995736766e-17 1.0 1
33 -0.04906767432741801 0.9987954562051724 1
34 -0.09801714032956065 0.9951847266721969 1
35 -0.14673047445536164 0.989176509964781 1
36 -0.1950903220161282 0.9807852804032304 1
37 -0.24298017990326387 0.970031253194544 1
38 -0.29028467725446216 0.9569403357322089 1
39 -0.33688985339221994 0.9415440651830208 1
40 -0.3826834323650897 0.9238795325112867 1
41 -0.42755509343028186 0.9039892931234434 1
42 -0.4713967368259977 0.881921264348355 1
43 -0.5141027441932217 0.8577286100002721 1
44 -0.555570233019602 0.8314696123025455 1
45 -0.5956993044924334 0.8032075314806449 1
46 -0.6343932841636454 0.7730104533627371 1
47 -0.6715589548470184 0.740951125354959 1
48 -0.7071067811865475 0.7071067811865476 1
49 -0.7409511253549589 0.6715589548470186 1
50 -0.773010453362737 0.6343932841636455 1
51 -0.8032075314806448 0.5956993044924335 1
52 -0.8314696123025453 0.5555702330196022 1
53 -0.857728610000272 0.5141027441932218 1
54 -0.8819212643483549 0.47139673682599786 1
55 -0.9039892931234433 0.42755509343028203 1
56 -0.9238795325112867 0.3826834323650899 1
57 -0.9415440651830207 0.33688985339222033 1
58 -0.9569403357322088 0.2902846772544624 1
59 -0.970031253194544 0.24298017990326407 1
60 -0.9807852804032304 0.1950903220161286 1
61 -0.989176509964781 0.1467304744553618 1
62 -0.9951847266721968 0.09801714032956083 1
63 -0.9987954562051724 0.049067674327417966 1
64 -1.0 1.2246467991473532e-16 1
65 -0.9987954562051724 -0.049067674327417724 1
66 -0.9951847266721969 -0.09801714032956059 1
67 -0.989176509964781 -0.14673047445536158 1
68 -0.9807852804032304 -0.19509032201612836 1
69 -0.970031253194544 -0.24298017990326382 1
70 -0.9569403357322089 -0.2902846772544621 1
71 -0.9415440651830208 -0.3368898533922201 1
72 -0.9238795325112868 -0.38268343236508967 1
73 -0.9039892931234434 -0.4275550934302818 1
74 -0.881921264348355 -0.47139673682599764 1
75 -0.8577286100002721 -0.5141027441932216 1
76 -0.8314696123025455 -0.555570233019602 1
77 -0.8032075314806449 -0.5956993044924332 1
78 -0.7730104533627371 -0.6343932841636453 1
79 -0.7409511253549591 -0.6715589548470184 1
80 -0.7071067811865477 -0.7071067811865475 1
81 -0.6715589548470187 -0.7409511253549589 1
82 -0.6343932841636459 -0.7730104533627367 1
83 -0.5956993044924331 -0.803207531480645 1
84 -0.5555702330196022 -0.8314696123025452 1
85 -0.5141027441932218 -0.857728610000272 1
86 -0.47139673682599786 -0.8819212643483549 1
87 -0.4275550934302825 -0.9039892931234431 1
88 -0.38268343236509034 -0.9238795325112865 1
89 -0.33688985339221994 -0.9415440651830208 1
90 -0.29028467725446244 -0.9569403357322088 1
91 -0.24298017990326412 -0.970031253194544 1
92 -0.19509032201612866 -0.9807852804032303 1
93 -0.1467304744553623 -0.9891765099647809 1
94 -0.09801714032956045 -0.9951847266721969 1
95 -0.04906767432741803 -0.9987954562051724 1
96 -1.8369701987210297e-16 -1.0 1
97 0.04906767432741766 -0.9987954562051724 1
98 0.09801714032956009 -0.9951847266721969 1
99 0.14673047445536194 -0.9891765099647809 1
100 0.1950903220161283 -0.9807852804032304 1
101 0.24298017990326376 -0.970031253194544 1
102 0.29028467725446205 -0.9569403357322089 1
103 0.3368898533922196 -0.9415440651830209 1
104 0.38268343236509 -0.9238795325112866 1
105 0.42755509343028214 -0.9039892931234433 1
106 0.4713967368259976 -0.881921264348355 1
107 0.5141027441932216 -0.8577286100002722 1
108 0.5555702330196018 -0.8314696123025455 1
109 0.5956993044924329 -0.8032075314806453 1
110 0.6343932841636456 -0.7730104533627369 1
111 0.6715589548470183 -0.7409511253549591 1
112 0.7071067811865474 -0.7071067811865477 1
113 0.7409511253549589 -0.6715589548470187 1
114 0.7730104533627367 -0.6343932841636459 1
115 0.803207531480645 -0.5956993044924332 1
116 0.8314696123025452 -0.5555702330196022 1
117 0.857728610000272 -0.5141027441932219 1
118 0.8819212643483548 -0.4713967368259979 1
119 0.9039892931234431 -0.42755509343028253 1
120 0.9238795325112865 -0.3826834323650904 1
121 0.9415440651830208 -0.33688985339222 1
122 0.9569403357322088 -0.2902846772544625 1
123 0.970031253194544 -0.24298017990326418 1
124 0.9807852804032303 -0.19509032201612872 1
125 0.9891765099647809 -0.1467304744553624 1
126 0.9951847266721969 -0.0980171403295605 1
127 0.9987954562051724 -0.04906767432741809 1
128 -0.95539 0.02398 0
129 -0.954974 -0.022765 0
130 -0.95203 0.074156 0
131 -0.949871 -0.071314 0
132 -0.946335 0.122837 0
133 -0.943748 -0.119238 0
134 -0.939837 0.171948 0
135 -0.938759 0.214997 0
136 -0.934878 -0.16793 0
137 -0.927845 -0.216579 0
138 -0.92025 0.252287 0
139 -0.919269 -0.261486 0
140 -0.911437 0.046597 0
141 -0.911133 0.000678 0
142 -0.905195 0.29961 0
143 -0.905393 0.092745 0
144 -0.906424 -0.044651 0
145 -0.905259 -0.30497 0
146 -0.900856 -0.091819 0
147 -0.897987 0.144817 0
148 -0.892608 0.201256 0
149 -0.892608 -0.140508 0
150 -0.888866 0.345834 0
151 -0.887748 -0.349801 0
152 -0.883461 -0.189885 0
153 -0.877425 -0.236257 0
154 -0.875189 -0.27643 0
155 -0.873649 0.254965 0
156 -0.873806 0.022836 0
157 -0.870371 0.3923 0
158 -0.867662 -0.393724 0
159 -0.86521 0.060341 0
160 -0.865167 -0.017036 0
161 -0.856935 0.110186 0
162 -0.856264 0.303778 0
163 -0.856436 -0.064299 0
164 -0.853941 -0.311407 0
165 -0.851779 0.435733 0
166 -0.850199 0.161323 0
167 -0.850295 -0.113086 0
168 -0.847659 -0.437573 0
169 -0.842716 -0.162483 0
170 -0.840264 0.350911 0
171 -0.837918 0.211115 0
172 -0.834103 -0.212878 0
173 -0.8338 -0.355903 0
174 -0.829619 0.479201 0
175 -0.8265 0.018787 0
176 -0.826742 -0.267924 0
177 -0.825146 -0.479878 0
178 -0.823304 0.394481 0
179 -0.822802 0.261096 0
180 -0.817769 0.073997 0
181 -0.817649 -0.035042 0
182 -0.815275 -0.399791 0
183 -0.807791 0.123885 0
184 -0.807791 -0.085663 0
185 -0.805417 0.519484 0
186 -0.806639 0.437153 0
187 -0.806639 0.309926 0
188 -0.802322 -0.317858 0
189 -0.80042 -0.134501 0
190 -0.80042 -0.521168 0
191 -0.797581 0.173773 0
192 -0.796221 -0.441368 0
193 -0.791754 0.35481 0
194 -0.79176 -0.181945 0
195 -0.787633 0.222857 0
196 -0.783036 0.475521 0
197 -0.782807 -0.23195 0
198 -0.783036 -0.362674 0
199 -0.776608 0.557036 0
200 -0.777815 0.040825 0
201 -0.777815 -0.007619 0
202 -0.774838 0.399407 0
203 -0.775232 -0.483012 0
204 -0.772554 0.270195 0
205 -0.773097 -0.559658 0
206 -0.768625 0.087696 0
207 -0.768625 -0.054498 0
208 -0.76878 -0.281294 0
209 -0.765216 0.437109 0
210 -0.764135 -0.406242 0
211 -0.760393 0.137585 0
212 -0.760162 -0.103331 0
213 -0.756651 0.511778 0
214 -0.756651 0.317197 0
215 -0.749167 0.184978 0
216 -0.750528 -0.151985 0
217 -0.750606 -0.327763 0
218 -0.750553 -0.519661 0
219 -0.747753 0.596757 0
220 -0.742973 0.364545 0
221 -0.74293 -0.449907 0
222 -0.742739 -0.596995 0
223 -0.740247 0.015226 0
224 -0.740436 -0.200446 0
225 -0.737775 0.464538 0
226 -0.736802 0.233401 0
227 -0.732952 -0.372578 0
228 -0.730311 -0.486232 0
229 -0.72921 0.549046 0
230 -0.729025 0.055018 0
231 -0.729323 -0.025713 0
232 -0.729114 -0.249288 0
233 -0.725468 0.41148 0
234 -0.723365 0.280511 0
235 -0.720479 0.633998 0
236 -0.720479 0.101395 0
237 -0.719231 -0.073338 0
238 -0.719118 -0.554579 0
239 -0.715074 -0.294791 0
240 -0.713038 -0.41749 0
241 -0.7105 0.501779 0
242 -0.710299 0.327597 0
243 -0.7105 0.150452 0
244 -0.7105 -0.121878 0
245 -0.710285 -0.635557 0
246 -0.700522 0.58734 0
247 -0.701882 0.37092 0
248 -0.700476 0.19609 0
249 -0.700484 -0.169621 0
250 -0.700834 -0.513539 0
251 -0.698205 -0.339094 0
252 -0.691791 0.451629 0
253 -0.691208 0.013488 0
254 -0.690721 -0.217663 0
255 -0.688092 0.666457 0
256 -0.687748 0.244607 0
257 -0.688049 -0.463652 0
258 -0.687799 -0.592125 0
259 -0.682713 0.066454 0
260 -0.68442 -0.382692 0
261 -0.679317 0.624002 0
262 -0.678996 0.540512 0
263 -0.679133 -0.041648 0
264 -0.677987 -0.673205 0
265 -0.675446 -0.263356 0
266 -0.674232 0.401786 0
267 -0.674328 0.292694 0
268 -0.673247 0.114929 0
269 -0.670137 -0.090613 0
270 -0.668092 -0.546763 0
271 -0.663102 0.162489 0
272 -0.662989 -0.308429 0
273 -0.663102 -0.422502 0
274 -0.660954 0.490531 0
275 -0.660774 -0.139695 0
276 -0.658113 0.345842 0
277 -0.655252 -0.630806 0
278 -0.655429 -0.705834 0
279 -0.653124 0.697582 0
280 -0.651431 0.209792 0
281 -0.651577 -0.186216 0
282 -0.651777 -0.350961 0
283 -0.650546 -0.501088 0
284 -0.6476 0.587727 0
285 -0.646983 0.643753 0
286 -0.642833 0.439383 0
287 -0.643007 -0.387493 0
288 -0.641174 0.25474 0
289 -0.642115 0.036175 0
290 -0.638199 -0.012103 0
291 -0.638196 -0.231633 0
292 -0.63641 0.082649 0
293 -0.633513 -0.584665 0
294 -0.632098 0.529363 0
295 -0.630504 -0.061402 0
296 -0.632222 -0.45744 0
297 -0.624525 0.3003 0
298 -0.624436 0.389483 0
299 -0.624209 0.128567 0
300 -0.624236 -0.27813 0
301 -0.620555 -0.108197 0
302 -0.619546 -0.67368 0
303 -0.616805 -0.728187 0
304 -0.615538 0.728915 0
305 -0.615782 -0.538912 0
306 -0.613958 0.479285 0
307 -0.614557 0.174491 0
308 -0.613755 -0.156923 0
309 -0.613958 -0.413792 0
310 -0.610549 0.674031 0
311 -0.610715 -0.323675 0
312 -0.605726 0.619292 0
313 -0.604946 0.222334 0
314 -0.60557 -0.369126 0
315 -0.603065 0.05536 0
316 -0.601888 0.342267 0
317 -0.601984 -0.201711 0
318 -0.600952 -0.623131 0
319 -0.598242 0.262245 0
320 -0.596995 0.566358 0
321 -0.596895 0.014827 0
322 -0.596995 -0.49238 0
323 -0.59362 0.429383 0
324 -0.59107 -0.032124 0
325 -0.589876 -0.247545 0
326 -0.588333 0.093923 0
327 -0.585898 0.515961 0
328 -0.583043 -0.080958 0
329 -0.583059 -0.573677 0
330 -0.578054 0.757235 0
331 -0.578196 0.141158 0
332 -0.579348 -0.446468 0
333 -0.577505 -0.758067 0
334 -0.574001 0.383224 0
335 -0.574543 0.295912 0
336 -0.574358 -0.127158 0
337 -0.574543 -0.294067 0
338 -0.573296 -0.705681 0
339 -0.570801 0.703782 0
340 -0.567059 -0.172748 0
341 -0.56553 0.648777 0
342 -0.5655 0.469285 0
343 -0.5655 0.189575 0
344 -0.564565 -0.398984 0
345 -0.56295 -0.528567 0
346 -0.564565 -0.655793 0
347 -0.559462 0.597869 0
348 -0.555833 0.24227 0
349 -0.555833 0.050183 0
350 -0.556064 -0.3454 0
351 -0.553339 0.54786 0
352 -0.554682 -0.217126 0
353 -0.550973 0.334698 0
354 -0.550613 -0.003638 0
355 -0.551036 -0.609744 0
356 -0.545677 0.504023 0
357 -0.54336 0.423125 0
358 -0.543222 -0.482425 0
359 -0.540979 0.102375 0
360 -0.542113 -0.052102 0
361 -0.53825 -0.259359 0
362 -0.537124 0.78609 0
363 -0.535627 -0.09942 0
364 -0.536292 -0.786958 0
365 -0.533215 0.733452 0
366 -0.530887 -0.735635 0
367 -0.528959 0.152565 0
368 -0.528433 -0.147266 0
369 -0.528782 -0.301883 0
370 -0.528392 -0.433038 0
371 -0.528623 -0.56457 0
372 -0.527245 0.679266 0
373 -0.525898 0.376966 0
374 -0.52572 -0.186998 0
375 -0.523036 0.626428 0
376 -0.524547 -0.686681 0
377 -0.519973 0.288301 0
378 -0.51978 0.201092 0
379 -0.516008 0.574572 0
380 -0.515655 -0.639599 0
381 -0.51238 0.466868 0
382 -0.514672 -0.382653 0
383 -0.510809 0.523942 0
384 -0.509498 0.333858 0
385 -0.508322 0.242816 0
386 -0.509683 0.022722 0
387 -0.508435 -0.51986 0
388 -0.506308 -0.024677 0
389 -0.50564 -0.224463 0
390 -0.506172 -0.59701 0
391 -0.503325 0.069594 0
392 -0.498457 -0.332767 0
393 -0.496693 0.813384 0
394 -0.495773 0.412067 0
395 -0.495962 -0.07208 0
396 -0.495595 -0.812984 0
397 -0.492036 0.760893 0
398 -0.492121 0.117959 0
399 -0.492036 -0.468958 0
400 -0.488938 -0.763095 0
401 -0.488167 -0.121976 0
402 -0.487231 0.706656 0
403 -0.483532 -0.276602 0
404 -0.483489 -0.713953 0
405 -0.482242 0.653712 0
406 -0.482 0.167439 0
407 -0.482427 -0.176629 0
408 -0.478308 0.602613 0
409 -0.4785 0.364389 0
410 -0.477437 -0.419072 0
411 -0.477253 -0.664562 0
412 -0.473511 0.551567 0
413 -0.473511 0.214793 0
414 -0.474573 2.4e-05 0
415 -0.470847 -0.561678 0
416 -0.469253 0.499049 0
417 -0.469769 0.312081 0
418 -0.468481 0.264723 0
419 -0.469769 -0.615742 0
420 -0.465278 0.03767 0
421 -0.463459 -0.371449 0
422 -0.45979 0.448143 0
423 -0.45979 -0.039896 0
424 -0.455364 -0.50741 0
425 -0.454457 0.838656 0
426 -0.454457 0.082784 0
427 -0.454302 -0.226765 0
428 -0.453597 -0.836702 0
429 -0.450697 0.786093 0
430 -0.449908 -0.139839 0
431 -0.448564 -0.78731 0
432 -0.44607 0.733663 0
433 -0.44607 0.396888 0
434 -0.44607 -0.31907 0
435 -0.445869 -0.738047 0
436 -0.442328 0.681274 0
437 -0.442143 0.132687 0
438 -0.442328 -0.090932 0
439 -0.44108 -0.455965 0
440 -0.438629 0.630133 0
441 -0.437784 -0.690951 0
442 -0.436453 0.578952 0
443 -0.433476 0.182144 0
444 -0.433405 0.001388 0
445 -0.43185 0.529097 0
446 -0.432349 0.344495 0
447 -0.430837 -0.643038 0
448 -0.428838 -0.18081 0
449 -0.426251 0.233482 0
450 -0.42736 -0.40639 0
451 -0.423965 -0.270434 0
452 -0.423833 -0.592585 0
453 -0.422556 0.479432 0
454 -0.418398 0.288175 0
455 -0.418262 0.047628 0
456 -0.41376 -0.358797 0
457 -0.414599 -0.541297 0
458 -0.410665 0.861929 0
459 -0.410646 0.431798 0
460 -0.411323 -0.04236 0
461 -0.409185 0.811337 0
462 -0.407403 -0.13199 0
463 -0.408764 -0.858115 0
464 -0.405964 -0.809378 0
465 -0.404426 0.758631 0
466 -0.404908 0.096787 0
467 -0.403446 -0.491519 0
468 -0.404184 -0.760678 0
469 -0.400975 0.707354 0
470 -0.401 -0.715569 0
471 -0.398471 0.656429 0
472 -0.400066 0.380873 0
473 -0.400104 -0.223878 0
474 -0.396177 0.606415 0
475 -0.396056 0.556724 0
476 -0.393683 0.147091 0
477 -0.39138 -0.312953 0
478 -0.391188 -0.441331 0
479 -0.39225 -0.67042 0
480 -0.387786 0.510482 0
481 -0.388504 -0.086981 0
482 -0.384452 0.332393 0
483 -0.386391 0.195949 0
484 -0.382642 0.005435 0
485 -0.382457 -0.623442 0
486 -0.378715 0.245435 0
487 -0.378798 -0.176906 0
488 -0.378594 -0.391645 0
489 -0.373927 0.464332 0
490 -0.373726 -0.573554 0
491 -0.368505 0.884369 0
492 -0.368505 0.834477 0
493 -0.368736 0.06008 0
494 -0.368647 -0.267875 0
495 -0.368693 -0.349856 0
496 -0.364163 0.415354 0
497 -0.363747 0.288336 0
498 -0.36481 -0.044465 0
499 -0.364192 -0.523487 0
500 -0.363747 -0.695712 0
501 -0.363707 -0.828372 0
502 -0.363955 -0.878838 0
503 -0.361252 0.784766 0
504 -0.361252 -0.73571 0
505 -0.361252 -0.780613 0
506 -0.35895 0.537701 0
507 -0.360005 -0.129516 0
508 -0.356071 0.734775 0
509 -0.355016 0.681236 0
510 -0.355112 0.629041 0
511 -0.355016 0.580312 0
512 -0.355201 0.369177 0
513 -0.355016 0.112461 0
514 -0.351317 -0.473821 0
515 -0.3465 -0.217393 0
516 -0.34379 0.163596 0
517 -0.341607 0.499122 0
518 -0.340949 -0.011029 0
519 -0.341295 -0.085369 0
520 -0.341064 -0.422828 0
521 -0.34108 -0.655676 0
522 -0.337646 0.324543 0
523 -0.337454 0.255096 0
524 -0.337553 0.212238 0
525 -0.336306 -0.603506 0
526 -0.33007 0.81121 0
527 -0.332564 0.028881 0
528 -0.332657 -0.314177 0
529 -0.332683 -0.372754 0
530 -0.328862 -0.168921 0
531 -0.326466 -0.554865 0
532 -0.323477 0.856381 0
533 -0.323085 0.449222 0
534 -0.323102 -0.703167 0
535 -0.322245 0.90211 0
536 -0.321338 -0.044349 0
537 -0.31901 0.396999 0
538 -0.318629 0.075241 0
539 -0.318844 -0.750696 0
540 -0.318844 -0.846739 0
541 -0.318933 -0.896543 0
542 -0.316349 0.544014 0
543 -0.31616 0.356804 0
544 -0.317689 -0.797956 0
545 -0.313854 0.65253 0
546 -0.313854 0.60139 0
547 -0.313854 -0.259257 0
548 -0.313854 -0.505913 0
549 -0.31136 0.284571 0
550 -0.31136 -0.122552 0
551 -0.308865 0.766033 0
552 -0.309825 0.706354 0
553 -0.305123 0.127638 0
554 -0.30115 -0.455091 0
555 -0.299199 -0.003668 0
556 -0.300134 -0.628218 0
557 -0.296759 0.494113 0
558 -0.2962 -0.208221 0
559 -0.295145 0.239661 0
560 -0.29533 -0.077388 0
561 -0.291403 0.324559 0
562 -0.291236 0.182449 0
563 -0.291819 -0.404204 0
564 -0.288908 -0.587311 0
565 -0.286414 0.92069 0
566 -0.286629 0.82069 0
567 -0.286414 -0.350323 0
568 -0.287476 -0.668618 0
569 -0.281389 0.416809 0
570 -0.281563 0.37053 0
571 -0.282764 0.037637 0
572 -0.281391 -0.038496 0
573 -0.280177 -0.159222 0
574 -0.277682 0.459319 0
575 -0.276747 -0.296692 0
576 -0.27617 -0.538331 0
577 -0.277682 -0.715559 0
578 -0.276478 -0.86422 0
579 -0.276112 -0.911064 0
580 -0.273774 -0.765517 0
581 -0.273774 -0.81541 0
582 -0.272693 0.878414 0
583 -0.271268 0.621506 0
584 -0.272693 0.571298 0
585 -0.272901 0.529028 0
586 -0.268759 0.674866 0
587 -0.268951 0.087477 0
588 -0.263962 0.728594 0
589 -0.265209 -0.112052 0
590 -0.263395 -0.488898 0
591 -0.26022 -0.24556 0
592 -0.255489 0.282181 0
593 -0.254112 0.779988 0
594 -0.255135 0.137171 0
595 -0.25415 -0.436568 0
596 -0.251132 -0.062565 0
597 -0.251274 -0.623715 0
598 -0.249133 0.223425 0
599 -0.248994 -0.572361 0
600 -0.246537 -0.006913 0
601 -0.24605 -0.195773 0
602 -0.244005 0.926028 0
603 -0.245399 0.490129 0
604 -0.244836 0.337864 0
605 -0.245156 -0.382867 0
606 -0.240263 0.437959 0
607 -0.240367 0.388379 0
608 -0.240367 0.17883 0
609 -0.237882 0.834718 0
610 -0.236306 -0.33185 0
611 -0.23756 -0.678388 0
612 -0.232779 0.54273 0
613 -0.231532 0.046798 0
614 -0.232562 -0.145678 0
615 -0.231532 -0.833057 0
616 -0.23248 -0.879507 0
617 -0.231532 -0.926606 0
618 -0.228588 0.592721 0
619 -0.22908 -0.732026 0
620 -0.228289 -0.783166 0
621 -0.22779 0.642513 0
622 -0.223927 -0.281547 0
623 -0.222708 0.693697 0
624 -0.21861 0.884588 0
625 -0.218892 0.100094 0
626 -0.21893 -0.096158 0
627 -0.219346 -0.527567 0
628 -0.216375 0.74373 0
629 -0.214069 -0.468849 0
630 -0.20908 -0.044765 0
631 -0.210143 -0.23163 0
632 -0.206585 -0.586412 0
633 -0.204212 0.793629 0
634 -0.204051 0.306452 0
635 -0.204057 0.253408 0
636 -0.205434 0.150007 0
637 -0.205338 -0.416466 0
638 -0.201037 0.461512 0
639 -0.199145 0.410931 0
640 -0.199293 0.360704 0
641 -0.200349 0.200952 0
642 -0.197854 -0.181029 0
643 -0.199175 -0.639885 0
644 -0.197854 -0.897018 0
645 -0.196158 0.510384 0
646 -0.196486 -0.364284 0
647 -0.195459 0.935169 0
648 -0.194112 -0.803138 0
649 -0.19037 0.663701 0
650 -0.189123 0.560174 0
651 -0.186628 0.843313 0
652 -0.187876 0.007613 0
653 -0.186397 -0.131024 0
654 -0.186439 -0.314383 0
655 -0.187704 -0.693592 0
656 -0.186628 -0.937851 0
657 -0.181639 0.614553 0
658 -0.182791 0.063164 0
659 -0.182702 -0.850772 0
660 -0.174796 0.758322 0
661 -0.175403 -0.081284 0
662 -0.177897 -0.752005 0
663 -0.171774 0.708407 0
664 -0.172908 -0.263892 0
665 -0.171973 -0.496309 0
666 -0.169 0.114708 0
667 -0.169166 -0.446417 0
668 -0.167805 0.894558 0
669 -0.166525 -0.037153 0
670 -0.167919 -0.548655 0
671 -0.164744 0.481469 0
672 -0.161682 -0.213173 0
673 -0.158841 0.280762 0
674 -0.159188 -0.396529 0
675 -0.159188 -0.601089 0
676 -0.156504 0.436789 0
677 -0.156693 0.333148 0
678 -0.154822 0.387049 0
679 -0.155446 0.227126 0
680 -0.154155 0.169792 0
681 -0.155446 -0.895456 0
682 -0.150724 0.801245 0
683 -0.150936 0.574549 0
684 -0.150797 -0.163399 0
685 -0.14804 0.657134 0
686 -0.147568 0.034774 0
687 -0.149322 -0.653669 0
688 -0.149292 -0.80216 0
689 -0.146327 0.943209 0
690 -0.146631 -0.349054 0
691 -0.145563 0.524174 0
692 -0.14078 0.854519 0
693 -0.140392 -0.114343 0
694 -0.140178 -0.941813 0
695 -0.136736 0.07744 0
696 -0.136736 -0.705873 0
697 -0.134241 0.747247 0
698 -0.135791 -0.298002 0
699 -0.131747 -0.063508 0
700 -0.13138 -0.426477 0
701 -0.12782 0.611056 0
702 -0.128123 -0.008628 0
703 -0.128005 -0.467531 0
704 -0.127672 -0.849318 0
705 -0.123257 -0.247551 0
706 -0.124306 -0.515039 0
707 -0.120521 0.90224 0
708 -0.123015 0.471585 0
709 -0.123242 0.123925 0
710 -0.120521 -0.564601 0
711 -0.119153 -0.755572 0
712 -0.118126 0.698145 0
713 -0.114092 0.824667 0
714 -0.114118 0.35949 0
715 -0.113983 -0.197194 0
716 -0.113133 0.306552 0
717 -0.11179 0.255795 0
718 -0.111601 -0.613696 0
719 -0.109252 0.561429 0
720 -0.109064 0.415265 0
721 -0.109295 0.204654 0
722 -0.108972 -0.896447 0
723 -0.1068 -0.384079 0
724 -0.105553 0.162287 0
725 -0.104306 0.040318 0
726 -0.104607 -0.147305 0
727 -0.101682 0.784136 0
728 -0.099437 -0.331494 0
729 -0.099279 -0.663065 0
730 -0.097 0.950364 0
731 -0.097 0.648871 0
732 -0.096865 -0.801933 0
733 -0.094441 0.86304 0
734 -0.095575 -0.097202 0
735 -0.088998 0.511522 0
736 -0.089123 0.087097 0
737 -0.090685 -0.43353 0
738 -0.090585 -0.945516 0
739 -0.086677 0.738328 0
740 -0.085596 -0.046066 0
741 -0.085781 -0.281577 0
742 -0.084228 -0.481902 0
743 -0.084478 -0.710154 0
744 -0.081854 0.459843 0
745 -0.081854 -0.528778 0
746 -0.07923 0.602018 0
747 -0.077596 -0.576307 0
748 -0.077927 -0.850818 0
749 -0.073622 0.379263 0
750 -0.074499 0.132424 0
751 -0.07437 -0.231141 0
752 -0.073023 0.907674 0
753 -0.073123 0.820811 0
754 -0.070129 0.33311 0
755 -0.073123 0.002574 0
756 -0.068882 0.558874 0
757 -0.068858 -0.179657 0
758 -0.068318 0.688825 0
759 -0.067198 0.281969 0
760 -0.067198 -0.35915 0
761 -0.066671 -0.756871 0
762 -0.064612 0.179908 0
763 -0.064429 -0.621427 0
764 -0.063144 0.228853 0
765 -0.059633 -0.13108 0
766 -0.059236 -0.897827 0
767 -0.055358 0.777148 0
768 -0.054182 0.051026 0
769 -0.05437 -0.399887 0
770 -0.049381 0.953059 0
771 -0.049424 0.86321 0
772 -0.049381 -0.081437 0
773 -0.050671 -0.316887 0
774 -0.050339 -0.667244 0
775 -0.047118 0.638881 0
776 -0.046281 0.420412 0
777 -0.046181 -0.805698 0
778 -0.043187 0.47877 0
779 -0.044746 -0.446472 0
780 -0.045682 -0.543762 0
781 -0.041491 -0.946746 0
782 -0.039134 0.529315 0
783 -0.040693 0.097217 0
784 -0.036951 0.729742 0
785 -0.036784 -0.032201 0
786 -0.03622 -0.498992 0
787 -0.032008 0.364507 0
788 -0.031962 -0.209488 0
789 -0.032051 -0.582346 0
790 -0.032528 -0.713289 0
791 -0.030714 0.145996 0
792 -0.030714 -0.264413 0
793 -0.02822 0.81834 0
794 -0.02822 0.58634 0
795 -0.028328 -0.851856 0
796 -0.024478 0.90779 0
797 -0.024478 0.310639 0
798 -0.024478 -0.162093 0
799 -0.021983 0.014712 0
800 -0.02323 -0.359419 0
801 -0.018056 0.683352 0
802 -0.018241 0.256863 0
803 -0.017356 -0.623562 0
804 -0.014386 -0.758503 0
805 -0.012559 0.198514 0
806 -0.013584 -0.115947 0
807 -0.009678 -0.899397 0
808 -0.008263 0.773385 0
809 -0.006751 -0.53845 0
810 -0.004687 -0.459129 0
811 -0.002026 0.861942 0
812 -0.002026 0.112306 0
813 -0.001887 -0.068555 0
814 -0.000779 0.952995 0
815 0.000219 0.547618 0
816 0.000302 0.501301 0
817 -5.4e-05 0.448959 0
818 -0.000683 -0.314084 0
819 0.000254 -0.409287 0
820 0.000302 -0.66868 0
821 0.002963 0.632901 0
822 0.003102 0.063658 0
823 0.005458 0.39669 0
824 0.004211 -0.187052 0
825 0.004211 -0.80572 0
826 0.007586 -0.947915 0
827 0.011461 0.725589 0
828 0.010198 -0.021994 0
829 0.0092 -0.227384 0
830 0.013254 -0.581207 0
831 0.014788 0.343052 0
832 0.015583 0.149864 0
833 0.015436 -0.495144 0
834 0.017931 -0.714173 0
835 0.018994 0.816013 0
836 0.020426 -0.149273 0
837 0.022966 0.906742 0
838 0.022754 0.289247 0
839 0.02292 0.022488 0
840 0.022689 -0.272571 0
841 0.021565 -0.851878 0
842 0.02791 0.583777 0
843 0.027694 -0.358977 0
844 0.031393 0.678701 0
845 0.031221 0.23698 0
846 0.031153 -0.623624 0
847 0.032668 -0.103679 0
848 0.035585 -0.759679 0
849 0.037365 0.528932 0
850 0.037775 -0.449192 0
851 0.038057 -0.89989 0
852 0.040345 0.768034 0
853 0.040347 0.102344 0
854 0.040383 -0.535069 0
855 0.042206 0.477845 0
856 0.043239 0.187085 0
857 0.045501 0.858308 0
858 0.045372 -0.054855 0
859 0.047867 0.952225 0
860 0.047867 0.427854 0
861 0.047824 -0.235716 0
862 0.050361 0.63366 0
863 0.049005 -0.190814 0
864 0.049005 -0.31305 0
865 0.04921 -0.668727 0
866 0.052856 -0.805374 0
867 0.054657 0.374448 0
868 0.058593 0.142215 0
869 0.057429 -0.005005 0
870 0.058442 -0.400367 0
871 0.057984 -0.94669 0
872 0.059978 0.721008 0
873 0.061587 -0.578469 0
874 0.063013 0.323252 0
875 0.064082 0.052406 0
876 0.065329 -0.488929 0
877 0.065329 -0.713445 0
878 0.068015 0.811922 0
879 0.067783 -0.140205 0
880 0.070496 0.905388 0
881 0.070318 -0.268157 0
882 0.070507 -0.850766 0
883 0.072582 0.597294 0
884 0.072813 0.269435 0
885 0.07406 0.556067 0
886 0.080297 0.674808 0
887 0.080465 -0.352372 0
888 0.080183 -0.623078 0
889 0.08164 0.506708 0
890 0.08164 0.219346 0
891 0.081544 -0.091162 0
892 0.085286 -0.758357 0
893 0.087469 0.456525 0
894 0.087859 -0.223963 0
895 0.087589 -0.896714 0
896 0.090414 0.764703 0
897 0.090275 -0.532097 0
898 0.092224 0.167068 0
899 0.092105 -0.041737 0
900 0.091523 -0.441792 0
901 0.095264 0.85691 0
902 0.095264 0.405382 0
903 0.095456 0.108617 0
904 0.096601 0.948052 0
905 0.097759 0.631145 0
906 0.098022 -0.666915 0
907 0.100374 -0.176915 0
908 0.099474 -0.306836 0
909 0.101033 -0.803268 0
910 0.10418 0.354654 0
911 0.104195 0.008433 0
912 0.105283 -0.942928 0
913 0.110112 0.716158 0
914 0.108985 -0.57626 0
915 0.112415 0.58413 0
916 0.112626 0.303297 0
917 0.113789 -0.391891 0
918 0.11491 -0.710973 0
919 0.117587 0.807265 0
920 0.117716 -0.127231 0
921 0.117837 -0.259647 0
922 0.119587 0.901713 0
923 0.119614 0.537587 0
924 0.118772 -0.484059 0
925 0.119115 -0.849275 0
926 0.122504 0.25183 0
927 0.122955 0.056122 0
928 0.127896 0.668994 0
929 0.126339 0.487691 0
930 0.127528 -0.080004 0
931 0.128262 -0.621285 0
932 0.130189 -0.345516 0
933 0.131615 0.199737 0
934 0.132727 -0.757131 0
935 0.135317 0.437795 0
936 0.135317 -0.213303 0
937 0.137481 -0.0311 0
938 0.136426 -0.89309 0
939 0.140524 0.146812 0
940 0.14048 -0.528876 0
941 0.142896 0.853225 0
942 0.142351 0.760846 0
943 0.142524 0.619899 0
944 0.142213 0.387799 0
945 0.145157 0.9442 0
946 0.146305 -0.296429 0
947 0.146903 -0.436577 0
948 0.14649 -0.665782 0
949 0.150396 -0.802042 0
950 0.151394 0.336712 0
951 0.151394 0.099722 0
952 0.151215 -0.164487 0
953 0.155179 0.570431 0
954 0.155179 0.013269 0
955 0.154944 -0.939153 0
956 0.160125 0.283117 0
957 0.159062 -0.574018 0
958 0.163332 0.710499 0
959 0.166361 0.897775 0
960 0.165114 0.520104 0
961 0.165001 -0.252172 0
962 0.16458 -0.710638 0
963 0.167692 -0.065303 0
964 0.167824 -0.846437 0
965 0.168856 0.805968 0
966 0.169965 0.23322 0
967 0.169925 -0.113266 0
968 0.17279 0.470112 0
969 0.172555 -0.331771 0
970 0.173014 -0.48274 0
971 0.174344 0.054852 0
972 0.174344 -0.381708 0
973 0.177837 0.657303 0
974 0.177587 -0.620445 0
975 0.182576 0.419064 0
976 0.181329 0.182075 0
977 0.182361 -0.75569 0
978 0.185071 -0.205841 0
979 0.186606 -0.027284 0
980 0.186318 -0.890617 0
981 0.190509 0.938891 0
982 0.190878 0.606115 0
983 0.190792 -0.531522 0
984 0.191308 0.368688 0
985 0.191215 0.132132 0
986 0.192047 -0.291308 0
987 0.197021 0.853163 0
988 0.197095 0.091114 0
989 0.197195 -0.664658 0
990 0.19985 0.753526 0
991 0.200787 0.316776 0
992 0.200039 -0.799569 0
993 0.201586 0.555213 0
994 0.201471 -0.159652 0
995 0.202874 -0.932995 0
996 0.205808 0.900517 0
997 0.204682 0.016172 0
998 0.204862 -0.433443 0
999 0.20748 -0.577551 0
1000 0.210219 0.80584 0
1001 0.210248 0.265448 0
1002 0.212512 0.503868 0
1003 0.213759 0.696185 0
1004 0.213759 -0.072641 0
1005 0.213759 -0.245768 0
1006 0.213567 -0.336822 0
1007 0.213641 -0.709769 0
1008 0.217134 -0.843233 0
1009 0.220636 0.453804 0
1010 0.221168 0.214526 0
1011 0.219547 -0.118445 0
1012 0.224847 0.642315 0
1013 0.223851 0.058459 0
1014 0.227695 -0.620312 0
1015 0.229974 0.401948 0
1016 0.229974 -0.753432 0
1017 0.231222 0.162096 0
1018 0.232625 -0.022663 0
1019 0.2327 -0.48757 0
1020 0.23222 -0.537647 0
1021 0.234921 -0.382982 0
1022 0.234964 -0.885649 0
1023 0.235923 0.92996 0
1024 0.236924 0.591081 0
1025 0.236211 -0.197089 0
1026 0.240082 0.350953 0
1027 0.241104 0.883231 0
1028 0.2412 0.10721 0
1029 0.2412 -0.289436 0
1030 0.245391 0.834292 0
1031 0.247125 0.783251 0
1032 0.247298 0.537531 0
1033 0.247308 -0.664364 0
1034 0.247593 -0.798031 0
1035 0.249931 0.300041 0
1036 0.251179 0.730906 0
1037 0.252426 -0.150989 0
1038 0.251083 -0.925378 0
1039 0.254354 0.020006 0
1040 0.25599 -0.574008 0
1041 0.259993 0.486967 0
1042 0.25991 0.246901 0
1043 0.259781 -0.058433 0
1044 0.25991 -0.099852 0
1045 0.262583 0.678292 0
1046 0.263538 -0.240687 0
1047 0.263652 -0.433006 0
1048 0.263652 -0.70979 0
1049 0.263652 -0.840897 0
1050 0.267351 0.063543 0
1051 0.267394 -0.334351 0
1052 0.268641 0.43672 0
1053 0.271136 0.196089 0
1054 0.273749 0.624831 0
1055 0.274764 -0.526629 0
1056 0.277637 0.385345 0
1057 0.277329 -0.75599 0
1058 0.278263 0.913612 0
1059 0.279119 -0.618743 0
1060 0.282278 0.144362 0
1061 0.284856 0.865191 0
1062 0.285034 0.573508 0
1063 0.287585 0.815508 0
1064 0.287394 0.333384 0
1065 0.286303 -0.019088 0
1066 0.287351 -0.883177 0
1067 0.292376 0.76331 0
1068 0.292148 -0.285812 0
1069 0.292174 -0.381926 0
1070 0.291292 -0.924041 0
1071 0.294973 -0.190922 0
1072 0.294973 -0.477804 0
1073 0.297216 0.521105 0
1074 0.297137 0.283153 0
1075 0.29688 0.09107 0
1076 0.299824 0.710884 0
1077 0.300055 -0.131238 0
1078 0.299741 -0.796453 0
1079 0.304813 -0.664905 0
1080 0.307308 0.470149 0
1081 0.307474 -0.072599 0
1082 0.307308 -0.714799 0
1083 0.305876 -0.838513 0
1084 0.309802 0.659948 0
1085 0.309802 0.231911 0
1086 0.309682 0.032542 0
1087 0.309802 -0.240821 0
1088 0.312297 -0.568498 0
1089 0.315159 -0.753469 0
1090 0.317286 0.419504 0
1091 0.321635 0.608426 0
1092 0.321635 -0.329554 0
1093 0.321527 -0.427923 0
1094 0.319698 -0.515484 0
1095 0.322755 0.178079 0
1096 0.325058 0.897778 0
1097 0.32465 0.368908 0
1098 0.325661 -0.615877 0
1099 0.329136 0.846739 0
1100 0.328845 -0.902903 0
1101 0.332555 0.795472 0
1102 0.333317 0.556434 0
1103 0.334749 0.316718 0
1104 0.334749 0.128373 0
1105 0.337243 0.743381 0
1106 0.337445 -0.022432 0
1107 0.337445 -0.860627 0
1108 0.342066 -0.109701 0
1109 0.341784 -0.687473 0
1110 0.345513 -0.159345 0
1111 0.345495 -0.815176 0
1112 0.345975 0.693171 0
1113 0.348469 0.505358 0
1114 0.347083 0.26548 0
1115 0.348671 0.074834 0
1116 0.347222 -0.213396 0
1117 0.348968 -0.378042 0
1118 0.348469 -0.728191 0
1119 0.348968 -0.772006 0
1120 0.349633 -0.273934 0
1121 0.354835 -0.477572 0
1122 0.3572 0.642257 0
1123 0.3572 0.453912 0
1124 0.359695 0.214427 0
1125 0.36231 0.401 0
1126 0.36064 -0.535209 0
1127 0.365051 0.024833 0
1128 0.364469 -0.069059 0
1129 0.364684 -0.646139 0
1130 0.367179 -0.587599 0
1131 0.368426 0.879241 0
1132 0.368426 0.592359 0
1133 0.372297 0.350895 0
1134 0.373415 0.82833 0
1135 0.374496 0.164362 0
1136 0.374471 -0.328257 0
1137 0.374496 -0.883382 0
1138 0.377231 0.776811 0
1139 0.377606 -0.423058 0
1140 0.382562 0.72503 0
1141 0.382596 0.54256 0
1142 0.382339 0.300578 0
1143 0.382313 -0.696288 0
1144 0.384598 -0.83707 0
1145 0.387136 0.11463 0
1146 0.389631 -0.742276 0
1147 0.390878 0.675962 0
1148 0.392168 -0.122319 0
1149 0.392356 -0.181171 0
1150 0.390878 -0.790879 0
1151 0.394577 -0.235869 0
1152 0.396883 0.250583 0
1153 0.396052 -0.02281 0
1154 0.395748 -0.505289 0
1155 0.399219 0.06481 0
1156 0.401912 0.432592 0
1157 0.401792 -0.374324 0
1158 0.407136 0.578751 0
1159 0.405513 0.490063 0
1160 0.406744 0.382993 0
1161 0.405959 -0.285653 0
1162 0.409221 0.626019 0
1163 0.409819 0.023012 0
1164 0.409588 -0.072477 0
1165 0.412082 0.201182 0
1166 0.410835 -0.46164 0
1167 0.414577 -0.60988 0
1168 0.417071 0.806876 0
1169 0.417071 -0.551816 0
1170 0.418319 0.336638 0
1171 0.419755 -0.663519 0
1172 0.419933 -0.863279 0
1173 0.422061 0.756981 0
1174 0.426409 0.708165 0
1175 0.430792 0.665923 0
1176 0.428297 0.150784 0
1177 0.428297 -0.331927 0
1178 0.428297 -0.71111 0
1179 0.43197 0.540013 0
1180 0.432039 0.287987 0
1181 0.433287 -0.416746 0
1182 0.433785 -0.761005 0
1183 0.436982 0.410314 0
1184 0.437028 -0.204704 0
1185 0.43734 -0.813394 0
1186 0.439523 0.100886 0
1187 0.439689 -0.154647 0
1188 0.44077 -0.251455 0
1189 0.442219 -0.501447 0
1190 0.447185 0.239157 0
1191 0.446562 0.049922 0
1192 0.447007 0.001098 0
1193 0.449323 0.590898 0
1194 0.450405 0.451592 0
1195 0.449502 -0.046301 0
1196 0.450749 0.37041 0
1197 0.451858 -0.101091 0
1198 0.455738 -0.294658 0
1199 0.456506 -0.373292 0
1200 0.459601 0.787946 0
1201 0.461846 0.637738 0
1202 0.462143 -0.585753 0
1203 0.462153 -0.63397 0
1204 0.460425 -0.849576 0
1205 0.464103 0.735758 0
1206 0.464684 0.501048 0
1207 0.464636 0.189268 0
1208 0.464469 -0.455427 0
1209 0.465717 0.324144 0
1210 0.468211 0.687111 0
1211 0.469267 -0.682536 0
1212 0.474448 -0.537754 0
1213 0.476943 -0.729841 0
1214 0.479206 0.410203 0
1215 0.480684 -0.227175 0
1216 0.479206 -0.263531 0
1217 0.480684 -0.33195 0
1218 0.482124 0.552299 0
1219 0.482163 0.277986 0
1220 0.482052 -0.778287 0
1221 0.484115 -0.182273 0
1222 0.486921 0.13579 0
1223 0.486921 -0.411032 0
1224 0.488468 0.078214 0
1225 0.488072 -0.14025 0
1226 0.491679 0.028335 0
1227 0.49191 -0.018879 0
1228 0.492099 -0.822149 0
1229 0.493158 -0.06503 0
1230 0.4969 0.364044 0
1231 0.4969 -0.491613 0
1232 0.499394 0.603528 0
1233 0.499394 0.229333 0
1234 0.501742 0.763036 0
1235 0.500641 -0.103591 0
1236 0.505132 0.713289 0
1237 0.504017 -0.292046 0
1238 0.5068 0.458758 0
1239 0.505631 -0.610112 0
1240 0.511867 0.658404 0
1241 0.510524 -0.36919 0
1242 0.511119 -0.568953 0
1243 0.510733 -0.654904 0
1244 0.514674 0.316639 0
1245 0.516857 0.514961 0
1246 0.516857 -0.700804 0
1247 0.51912 0.182989 0
1248 0.519391 -0.252501 0
1249 0.518572 -0.449214 0
1250 0.524149 -0.747228 0
1251 0.526752 0.404943 0
1252 0.527904 -0.209912 0
1253 0.529413 -0.167908 0
1254 0.528082 -0.526551 0
1255 0.531945 0.269434 0
1256 0.532406 -0.3269 0
1257 0.533072 0.565862 0
1258 0.533072 0.102093 0
1259 0.535566 0.054347 0
1260 0.534206 -0.125108 0
1261 0.533072 -0.792231 0
1262 0.53698 0.004967 0
1263 0.537961 0.144948 0
1264 0.538174 -0.041464 0
1265 0.538061 -0.084964 0
1266 0.541924 0.740512 0
1267 0.541803 0.696122 0
1268 0.541572 -0.405383 0
1269 0.542052 -0.592665 0
1270 0.545637 0.356401 0
1271 0.549476 0.615865 0
1272 0.551425 0.223965 0
1273 0.551069 -0.284583 0
1274 0.550719 -0.483737 0
1275 0.551336 -0.628663 0
1276 0.555024 0.483761 0
1277 0.558517 0.437609 0
1278 0.558412 -0.671516 0
1279 0.559394 -0.559554 0
1280 0.56176 -0.361921 0
1281 0.564208 0.310473 0
1282 0.564255 -0.717406 0
1283 0.566749 0.532401 0
1284 0.565598 -0.240837 0
1285 0.569155 0.664526 0
1286 0.569244 -0.149881 0
1287 0.571953 -0.441968 0
1288 0.574464 0.392514 0
1289 0.574067 0.17708 0
1290 0.572877 -0.764808 0
1291 0.577975 0.124386 0
1292 0.579056 0.077293 0
1293 0.577883 -0.110017 0
1294 0.577856 -0.191046 0
1295 0.581467 0.763647 0
1296 0.581674 0.712008 0
1297 0.582366 0.265469 0
1298 0.582448 -0.06451 0
1299 0.581717 -0.520338 0
1300 0.583849 0.578504 0
1301 0.582964 0.029727 0
1302 0.582864 -0.01812 0
1303 0.583762 -0.318374 0
1304 0.584045 -0.596592 0
1305 0.588678 0.463749 0
1306 0.59419 -0.400602 0
1307 0.595905 0.349033 0
1308 0.602041 0.625934 0
1309 0.600611 0.500972 0
1310 0.601496 0.222785 0
1311 0.601373 -0.274841 0
1312 0.601875 -0.479065 0
1313 0.605416 0.428811 0
1314 0.604169 -0.64009 0
1315 0.604133 -0.688771 0
1316 0.609657 -0.559017 0
1317 0.611341 -0.733642 0
1318 0.614069 -0.230118 0
1319 0.616503 0.542358 0
1320 0.615295 0.30457 0
1321 0.616193 -0.146059 0
1322 0.61633 -0.355604 0
1323 0.619275 0.73181 0
1324 0.619303 0.149619 0
1325 0.620199 0.187103 0
1326 0.624005 0.678513 0
1327 0.624357 0.387503 0
1328 0.623346 0.102053 0
1329 0.624209 -0.092778 0
1330 0.626787 0.05482 0
1331 0.626749 -0.437519 0
1332 0.628699 0.465481 0
1333 0.6289 0.004975 0
1334 0.627868 -0.042594 0
1335 0.627868 -0.190469 0
1336 0.635351 0.587585 0
1337 0.632738 0.260458 0
1338 0.632857 -0.516619 0
1339 0.633926 -0.597516 0
1340 0.636737 -0.310721 0
1341 0.638701 -0.66719 0
1342 0.64764 0.506403 0
1343 0.647825 0.344021 0
1344 0.649072 -0.394389 0
1345 0.649072 -0.70497 0
1346 0.651477 0.427501 0
1347 0.650415 0.219097 0
1348 0.651733 -0.264503 0
1349 0.655724 0.708649 0
1350 0.656556 0.633394 0
1351 0.656734 -0.476537 0
1352 0.659799 -0.633878 0
1353 0.660397 0.173932 0
1354 0.663291 -0.218524 0
1355 0.660298 -0.556314 0
1356 0.666846 0.550677 0
1357 0.666494 0.299874 0
1358 0.666421 0.129286 0
1359 0.666712 -0.120166 0
1360 0.666222 -0.169568 0
1361 0.670775 0.082075 0
1362 0.671523 -0.070097 0
1363 0.670276 -0.349452 0
1364 0.675169 0.468932 0
1365 0.675087 0.386596 0
1366 0.675169 0.031989 0
1367 0.676513 -0.018461 0
1368 0.678684 0.674546 0
1369 0.679007 -0.434005 0
1370 0.683082 0.252952 0
1371 0.682845 -0.673514 0
1372 0.686907 -0.51521 0
1373 0.687115 -0.596649 0
1374 0.687739 0.594215 0
1375 0.691672 -0.300955 0
1376 0.696734 0.512387 0
1377 0.696662 0.20526 0
1378 0.699331 0.428816 0
1379 0.703954 0.341135 0
1380 0.703954 -0.388177 0
1381 0.706679 0.160455 0
1382 0.705088 -0.251086 0
1383 0.710286 0.638168 0
1384 0.71019 -0.197202 0
1385 0.71019 -0.474244 0
1386 0.711438 -0.637144 0
1387 0.713889 0.113239 0
1388 0.713754 -0.147628 0
1389 0.714455 -0.556609 0
1390 0.716313 -0.097747 0
1391 0.719035 0.288919 0
1392 0.718921 0.062845 0
1393 0.720169 0.555783 0
1394 0.720169 -0.046528 0
1395 0.724126 0.473493 0
1396 0.723911 0.391386 0
1397 0.726405 -0.341537 0
1398 0.727749 0.009514 0
1399 0.733889 0.241704 0
1400 0.73409 -0.431967 0
1401 0.740277 -0.515267 0
1402 0.741896 -0.59911 0
1403 0.74262 0.600926 0
1404 0.746325 0.19396 0
1405 0.74761 0.51615 0
1406 0.747954 0.433569 0
1407 0.747706 0.360384 0
1408 0.751352 -0.287165 0
1409 0.752503 -0.227486 0
1410 0.756175 0.321356 0
1411 0.754985 0.145651 0
1412 0.756212 -0.174952 0
1413 0.758835 -0.386587 0
1414 0.760658 0.096236 0
1415 0.760083 -0.125018 0
1416 0.763782 -0.076374 0
1417 0.767567 0.049867 0
1418 0.765168 -0.474076 0
1419 0.768935 -0.027933 0
1420 0.768943 -0.559646 0
1421 0.771398 0.560465 0
1422 0.771558 0.396271 0
1423 0.769962 0.277062 0
1424 0.773995 0.477524 0
1425 0.778403 0.011867 0
1426 0.782426 -0.340813 0
1427 0.786415 0.22796 0
1428 0.788771 -0.430623 0
1429 0.791266 0.35612 0
1430 0.796368 -0.51688 0
1431 0.798611 0.519826 0
1432 0.798204 0.436178 0
1433 0.797389 0.178403 0
1434 0.7983 -0.250914 0
1435 0.801201 -0.199832 0
1436 0.802491 0.129415 0
1437 0.803739 -0.150482 0
1438 0.806113 0.313815 0
1439 0.806412 -0.101161 0
1440 0.808728 0.081235 0
1441 0.811031 -0.054039 0
1442 0.810958 -0.298417 0
1443 0.813717 -0.386611 0
1444 0.814851 0.035748 0
1445 0.814965 -0.008522 0
1446 0.819954 0.395984 0
1447 0.821088 0.266423 0
1448 0.820889 -0.474293 0
1449 0.825287 0.478438 0
1450 0.838707 0.351464 0
1451 0.837416 -0.342085 0
1452 0.841158 -0.26512 0
1453 0.842405 0.21671 0
1454 0.843461 -0.223688 0
1455 0.844971 -0.432001 0
1456 0.846286 0.160487 0
1457 0.84833 0.436234 0
1458 0.847395 -0.174949 0
1459 0.852384 0.11207 0
1460 0.852288 -0.127361 0
1461 0.855736 0.306822 0
1462 0.856375 0.063284 0
1463 0.856126 -0.077662 0
1464 0.858621 -0.031513 0
1465 0.85996 0.01727 0
1466 0.861346 -0.300749 0
1467 0.86847 -0.387131 0
1468 0.869846 0.392569 0
1469 0.870973 0.263894 0
1470 0.888255 0.34869 0
1471 0.888757 0.186875 0
1472 0.887309 -0.252257 0
1473 0.888923 -0.344602 0
1474 0.891051 0.227914 0
1475 0.891013 -0.199499 0
1476 0.895997 0.1406 0
1477 0.895851 -0.149835 0
1478 0.899713 0.092023 0
1479 0.899782 -0.101078 0
1480 0.903671 0.0447 0
1481 0.902978 -0.052815 0
1482 0.906019 0.302747 0
1483 0.905731 -0.004188 0
1484 0.910807 -0.299829 0
1485 0.922358 0.259582 0
1486 0.931828 0.215519 0
1487 0.931227 -0.220742 0
1488 0.92872 -0.260925 0
1489 0.937995 0.167796 0
1490 0.938449 -0.173534 0
1491 0.944893 0.120622 0
1492 0.943438 -0.123851 0
1493 0.948427 0.070728 0
1494 0.94828 -0.075355 0
1495 0.951497 0.022944 0
1496 0.951371 -0.026664 0
1497 0.41333 0.860512 0
1498 0.458233 0.838041 0
1499 0.499394 0.814324 0
1500 0.54305 0.789358 0
