# unit disk, 108 nodes, 32 of them on the circle r = 1; nodes of Musavi and Ashrafizaadeh (2015), doi:10.1103/PhysRevE.91.023310, read off the paper's figures
108 2 0 1
0 1.0 0.0 1
1 0.9807852804032304 0.19509032201612825 1
2 0.9238795325112867 0.3826834323650898 1
3 0.8314696123025452 0.5555702330196022 1
4 0.7071067811865476 0.7071067811865475 1
5 0.5555702330196023 0.8314696123025452 1
6 0.38268343236508984 0.9238795325112867 1
7 0.19509032201612833 0.9807852804032304 1
8 6.123233995736766e-17 1.0 1
9 -0.1950903220161282 0.9807852804032304 1
10 -0.3826834323650897 0.9238795325112867 1
11 -0.555570233019602 0.8314696123025455 1
12 -0.7071067811865475 0.7071067811865476 1
13 -0.8314696123025453 0.5555702330196022 1
14 -0.9238795325112867 0.3826834323650899 1
15 -0.9807852804032304 0.1950903220161286 1
16 -1.0 1.2246467991473532e-16 1
17 -0.9807852804032304 -0.19509032201612836 1
18 -0.9238795325112868 -0.38268343236508967 1
19 -0.8314696123025455 -0.555570233019602 1
20 -0.7071067811865477 -0.7071067811865475 1
21 -0.5555702330196022 -0.8314696123025452 1
22 -0.38268343236509034 -0.9238795325112865 1
23 -0.19509032201612866 -0.9807852804032303 1
24 -1.8369701987210297e-16 -1.0 1
25 0.1950903220161283 -0.9807852804032304 1
26 0.38268343236509 -0.9238795325112866 1
27 0.5555702330196018 -0.8314696123025455 1
28 0.7071067811865474 -0.7071067811865477 1
29 0.8314696123025452 -0.5555702330196022 1
30 0.9238795325112865 -0.3826834323650904 1
31 0.9807852804032303 -0.19509032201612872 1
32 -0.839979 -0.094853 0
33 -0.808097 0.059226 0
34 -0.781633 -0.248541 0
35 -0.77647 0.238721 0
36 -0.705482 0.414537 0
37 -0.698429 -0.42496 0
38 -0.639635 -0.096939 0
39 -0.61111 0.10722 0
40 -0.606484 -0.605986 0
41 -0.601285 0.273882 0
42 -0.599546 -0.288948 0
43 -0.584957 0.596795 0
44 -0.503422 0.404643 0
45 -0.457667 -0.45059 0
46 -0.436643 -0.221597 0
47 -0.432624 -0.011682 0
48 -0.41711 0.206556 0
49 -0.406415 -0.688161 0
50 -0.403298 0.726219 0
51 -0.368898 0.542498 0
52 -0.332809 0.37658 0
53 -0.261661 0.82357 0
54 -0.252727 -0.346389 0
55 -0.246793 -0.138203 0
56 -0.241639 0.070907 0
57 -0.235648 -0.558595 0
58 -0.217926 0.663583 0
59 -0.211116 0.263331 0
60 -0.203771 -0.771963 0
61 -0.163809 0.469892 0
62 -0.100202 0.820478 0
63 -0.077797 -0.449029 0
64 -0.068661 -0.042978 0
65 -0.051277 0.149521 0
66 -0.046436 0.321687 0
67 -0.044591 -0.257987 0
68 -0.024159 0.638695 0
69 -0.004479 -0.853732 0
70 -0.000899 -0.640423 0
71 0.052708 0.45799 0
72 0.084061 0.81032 0
73 0.081849 -0.121233 0
74 0.112492 0.044588 0
75 0.134002 0.255886 0
76 0.132214 -0.43709 0
77 0.149957 -0.251799 0
78 0.18839 -0.789726 0
79 0.19389 0.622128 0
80 0.211177 -0.616931 0
81 0.2203 0.430375 0
82 0.248904 0.807676 0
83 0.267622 -0.102394 0
84 0.29984 0.106816 0
85 0.313803 -0.312848 0
86 0.343728 0.303071 0
87 0.372563 -0.721395 0
88 0.379065 -0.512331 0
89 0.381279 0.506631 0
90 0.394795 0.709393 0
91 0.43792 -0.193433 0
92 0.461648 -0.024894 0
93 0.491171 0.167481 0
94 0.515474 -0.350038 0
95 0.522814 -0.65586 0
96 0.531666 0.366988 0
97 0.586679 0.584403 0
98 0.611347 -0.523101 0
99 0.628469 -0.173847 0
100 0.646325 0.033911 0
101 0.668723 0.222622 0
102 0.719808 -0.370749 0
103 0.723536 0.402685 0
104 0.811021 -0.238638 0
105 0.814833 -0.077911 0
106 0.821816 0.102859 0
107 0.823984 0.263407 0
