# unit disk, 409 nodes, 64 of them on the circle r = 1; nodes of Musavi and Ashrafizaadeh (2015), doi:10.1103/PhysRevE.91.023310, read off the paper's figures
409 2 0 1
0 1.0 0.0 1
1 0.9951847266721969 0.0980171403295606 1
2 0.9807852804032304 0.19509032201612825 1
3 0.9569403357322088 0.29028467725446233 1
4 0.9238795325112867 0.3826834323650898 1
5 0.881921264348355 0.47139673682599764 1
6 0.8314696123025452 0.5555702330196022 1
7 0.773010453362737 0.6343932841636455 1
8 0.7071067811865476 0.7071067811865475 1
9 0.6343932841636455 0.773010453362737 1
10 0.5555702330196023 0.8314696123025452 1
11 0.4713967368259978 0.8819212643483549 1
12 0.38268343236508984 0.9238795325112867 1
13 0.29028467725446233 0.9569403357322089 1
14 0.19509032201612833 0.9807852804032304 1
15 0.09801714032956077 0.9951847266721968 1
16 6.123233995736766e-17 1.0 1
17 -0.09801714032956065 0.9951847266721969 1
18 -0.1950903220161282 0.9807852804032304 1
19 -0.29028467725446216 0.9569403357322089 1
20 -0.3826834323650897 0.9238795325112867 1
21 -0.4713967368259977 0.881921264348355 1
22 -0.555570233019602 0.8314696123025455 1
23 -0.6343932841636454 0.7730104533627371 1
24 -0.7071067811865475 0.7071067811865476 1
25 -0.773010453362737 0.6343932841636455 1
26 -0.8314696123025453 0.5555702330196022 1
27 -0.8819212643483549 0.47139673682599786 1
28 -0.9238795325112867 0.3826834323650899 1
29 -0.9569403357322088 0.2902846772544624 1
30 -0.9807852804032304 0.1950903220161286 1
31 -0.9951847266721968 0.09801714032956083 1
32 -1.0 1.2246467991473532e-16 1
33 -0.9951847266721969 -0.09801714032956059 1
34 -0.9807852804032304 -0.19509032201612836 1
35 -0.9569403357322089 -0.2902846772544621 1
36 -0.9238795325112868 -0.38268343236508967 1
37 -0.881921264348355 -0.47139673682599764 1
38 -0.8314696123025455 -0.555570233019602 1
39 -0.7730104533627371 -0.6343932841636453 1
40 -0.7071067811865477 -0.7071067811865475 1
41 -0.6343932841636459 -0.7730104533627367 1
42 -0.5555702330196022 -0.8314696123025452 1
43 -0.47139673682599786 -0.8819212643483549 1
44 -0.38268343236509034 -0.9238795325112865 1
45 -0.29028467725446244 -0.9569403357322088 1
46 -0.19509032201612866 -0.9807852804032303 1
47 -0.09801714032956045 -0.9951847266721969 1
48 -1.8369701987210297e-16 -1.0 1
49 0.09801714032956009 -0.9951847266721969 1
50 0.1950903220161283 -0.9807852804032304 1
51 0.29028467725446205 -0.9569403357322089 1
52 0.38268343236509 -0.9238795325112866 1
53 0.4713967368259976 -0.881921264348355 1
54 0.5555702330196018 -0.8314696123025455 1
55 0.6343932841636456 -0.7730104533627369 1
56 0.7071067811865474 -0.7071067811865477 1
57 0.7730104533627367 -0.6343932841636459 1
58 0.8314696123025452 -0.5555702330196022 1
59 0.8819212643483548 -0.4713967368259979 1
60 0.9238795325112865 -0.3826834323650904 1
61 0.9569403357322088 -0.2902846772544625 1
62 0.9807852804032303 -0.19509032201612872 1
63 0.9951847266721969 -0.0980171403295605 1
64 -0.932293 -0.045755 0
65 -0.918254 0.033006 0
66 -0.911235 0.124615 0
67 -0.907024 -0.124516 0
68 -0.891582 0.212372 0
69 -0.884563 -0.215502 0
70 -0.859294 0.297947 0
71 -0.853679 -0.304243 0
72 -0.845256 -0.040344 0
73 -0.834025 0.145556 0
74 -0.832621 0.062499 0
75 -0.819987 0.383522 0
76 -0.818583 -0.139981 0
77 -0.818583 -0.391982 0
78 -0.79893 0.214944 0
79 -0.786295 -0.228729 0
80 -0.782084 -0.474751 0
81 -0.775065 0.47058 0
82 -0.76243 0.299116 0
83 -0.759623 -0.076326 0
84 -0.752603 -0.317911 0
85 -0.749796 0.008957 0
86 -0.744181 0.116737 0
87 -0.731546 -0.553358 0
88 -0.725931 0.549527 0
89 -0.721719 -0.152333 0
90 -0.720316 0.38547 0
91 -0.717508 -0.404935 0
92 -0.706277 0.215178 0
93 -0.693643 -0.480443 0
94 -0.688028 0.62428 0
95 -0.688028 -0.241221 0
96 -0.671182 0.470499 0
97 -0.671182 -0.62133 0
98 -0.66669 0.302997 0
99 -0.665567 -0.06299 0
100 -0.659951 0.043093 0
101 -0.650125 -0.33215 0
102 -0.647317 0.139034 0
103 -0.633279 -0.539174 0
104 -0.629067 -0.16099 0
105 -0.62626 -0.688828 0
106 -0.620644 0.669466 0
107 -0.617837 0.564157 0
108 -0.61924 0.383756 0
109 -0.615029 0.224196 0
110 -0.610818 -0.432946 0
111 -0.588076 -0.25076 0
112 -0.572914 0.467493 0
113 -0.571511 -0.095557 0
114 -0.568703 0.302779 0
115 -0.568703 0.158502 0
116 -0.568703 0.080269 0
117 -0.568703 -0.012086 0
118 -0.565895 -0.619457 0
119 -0.553261 -0.727948 0
120 -0.551857 0.730029 0
121 -0.547646 -0.341158 0
122 -0.540626 -0.514733 0
123 -0.536415 0.63263 0
124 -0.527992 -0.169207 0
125 -0.522377 0.22099 0
126 -0.519569 0.380997 0
127 -0.511146 0.540242 0
128 -0.501319 -0.425861 0
129 -0.491493 0.134052 0
130 -0.488685 -0.257588 0
131 -0.485877 0.4546 0
132 -0.480262 0.036546 0
133 -0.477454 0.692152 0
134 -0.474647 0.779531 0
135 -0.474647 -0.675 0
136 -0.471839 -0.073612 0
137 -0.471839 -0.778251 0
138 -0.469032 -0.579044 0
139 -0.467628 0.297947 0
140 -0.457801 -0.495073 0
141 -0.449378 -0.344298 0
142 -0.429725 0.611721 0
143 -0.428321 0.203254 0
144 -0.425513 -0.175052 0
145 -0.41709 0.500349 0
146 -0.411475 0.388782 0
147 -0.403052 0.717637 0
148 -0.39884 0.102548 0
149 -0.391821 0.819579 0
150 -0.392022 -0.264402 0
151 -0.394629 -0.429228 0
152 -0.38761 -0.62594 0
153 -0.38761 -0.722537 0
154 -0.386206 -0.822767 0
155 -0.384802 -0.529743 0
156 -0.383398 0.001942 0
157 -0.367956 0.282716 0
158 -0.366272 -0.342695 0
159 -0.356258 -0.098207 0
160 -0.33988 0.554992 0
161 -0.331457 0.653262 0
162 -0.327246 0.454717 0
163 -0.330053 0.180808 0
164 -0.320227 -0.193056 0
165 -0.314611 0.753477 0
166 -0.306188 -0.573633 0
167 -0.303381 0.854323 0
168 -0.303381 0.359272 0
169 -0.303381 -0.477236 0
170 -0.303381 -0.668787 0
171 -0.301977 -0.764302 0
172 -0.297765 -0.029789 0
173 -0.297765 -0.289854 0
174 -0.297765 -0.859417 0
175 -0.296362 -0.384625 0
176 -0.29215 0.074891 0
177 -0.268285 0.260459 0
178 -0.265477 0.51165 0
179 -0.252843 0.595354 0
180 -0.238805 0.689907 0
181 -0.238805 -0.115658 0
182 -0.230382 0.167641 0
183 -0.224767 -0.525735 0
184 -0.224767 -0.616721 0
185 -0.223363 0.786222 0
186 -0.221959 -0.227192 0
187 -0.219151 0.428053 0
188 -0.216344 0.332618 0
189 -0.216344 -0.707346 0
190 -0.216344 -0.798091 0
191 -0.212333 0.883944 0
192 -0.213536 -0.009481 0
193 -0.213536 -0.890079 0
194 -0.210728 -0.432545 0
195 -0.207921 -0.3321 0
196 -0.184056 0.528426 0
197 -0.181248 0.083309 0
198 -0.162999 0.624815 0
199 -0.162999 -0.569024 0
200 -0.157383 0.254258 0
201 -0.143345 0.721879 0
202 -0.144749 -0.833698 0
203 -0.139134 0.156959 0
204 -0.13773 -0.070617 0
205 -0.13773 -0.489421 0
206 -0.139134 -0.646415 0
207 -0.134922 -0.169808 0
208 -0.132114 0.361076 0
209 -0.130711 0.81767 0
210 -0.129307 0.01557 0
211 -0.123692 0.91148 0
212 -0.123692 -0.274021 0
213 -0.123692 -0.908818 0
214 -0.116672 0.460056 0
215 -0.116672 -0.743602 0
216 -0.109653 -0.386852 0
217 -0.091404 0.558003 0
218 -0.081577 -0.56742 0
219 -0.073154 0.088519 0
220 -0.07175 0.655444 0
221 -0.061923 0.194135 0
222 -0.06052 -0.830736 0
223 -0.052097 0.294674 0
224 -0.052097 -0.115244 0
225 -0.047885 0.93605 0
226 -0.045078 -0.017698 0
227 -0.04227 0.858091 0
228 -0.043674 -0.312066 0
229 -0.043674 -0.478118 0
230 -0.04227 -0.657805 0
231 -0.038058 0.393965 0
232 -0.033847 0.756684 0
233 -0.033847 -0.917335 0
234 -0.025424 -0.215502 0
235 -0.019809 0.492945 0
236 -0.005771 -0.746987 0
237 -0.000155 -0.390259 0
238 0.002652 0.590785 0
239 0.004056 -0.071007 0
240 0.015287 0.049044 0
241 0.012479 -0.567855 0
242 0.016691 0.675451 0
243 0.022306 0.134279 0
244 0.030729 0.234818 0
245 0.033536 0.919176 0
246 0.041959 0.332618 0
247 0.040556 -0.128524 0
248 0.041959 -0.843184 0
249 0.047575 -0.300195 0
250 0.047575 -0.930963 0
251 0.048979 0.82823 0
252 0.054594 0.431843 0
253 0.055998 -0.474631 0
254 0.070036 -0.029455 0
255 0.070036 -0.661412 0
256 0.07144 0.5297 0
257 0.075651 0.735761 0
258 0.08267 -0.755605 0
259 0.089689 -0.209823 0
260 0.103728 -0.384086 0
261 0.105131 0.632998 0
262 0.105131 0.06928 0
263 0.109343 -0.558723 0
264 0.114958 0.172157 0
265 0.123381 0.901981 0
266 0.126189 0.274098 0
267 0.126189 -0.907114 0
268 0.134612 0.37288 0
269 0.138823 -0.111923 0
270 0.144438 0.468816 0
271 0.145842 -0.817064 0
272 0.147246 0.807187 0
273 0.14865 -0.294597 0
274 0.155669 0.554671 0
275 0.155669 -0.46942 0
276 0.162688 -0.721134 0
277 0.173919 0.714798 0
278 0.173919 -0.626541 0
279 0.192168 -0.007924 0
280 0.193572 -0.543371 0
281 0.19638 -0.203076 0
282 0.201995 0.111165 0
283 0.20761 -0.382563 0
284 0.210418 0.216314 0
285 0.217437 0.882942 0
286 0.216033 0.31899 0
287 0.218841 -0.884909 0
288 0.224456 0.620606 0
289 0.224456 0.416723 0
290 0.228668 0.514456 0
291 0.238494 -0.783622 0
292 0.24411 0.790052 0
293 0.242706 -0.110287 0
294 0.252533 -0.290054 0
295 0.258148 -0.685341 0
296 0.263763 0.708252 0
297 0.262359 -0.479006 0
298 0.265448 -0.587448 0
299 0.296051 0.161343 0
300 0.293243 0.055064 0
301 0.293243 -0.033285 0
302 0.300263 -0.197932 0
303 0.30307 0.262875 0
304 0.305878 0.36332 0
305 0.310089 0.462608 0
306 0.308685 -0.853805 0
307 0.311493 0.859494 0
308 0.311493 -0.379637 0
309 0.314301 0.562327 0
310 0.329743 0.658764 0
311 0.333954 -0.750594 0
312 0.335358 -0.544474 0
313 0.346589 0.761945 0
314 0.349396 -0.110053 0
315 0.357819 -0.286097 0
316 0.360627 -0.641096 0
317 0.370454 -0.461604 0
318 0.387299 0.21304 0
319 0.385896 0.107469 0
320 0.392915 0.842259 0
321 0.392915 0.507174 0
322 0.391511 0.411298 0
323 0.392915 -0.004337 0
324 0.394319 0.315062 0
325 0.400215 -0.822194 0
326 0.405549 -0.197498 0
327 0.408357 0.600342 0
328 0.415376 -0.374146 0
329 0.422395 -0.548214 0
330 0.429414 0.697363 0
331 0.429414 -0.726278 0
332 0.451875 -0.104475 0
333 0.454683 0.789351 0
334 0.460298 0.459276 0
335 0.46451 -0.284102 0
336 0.471529 0.165777 0
337 0.470125 -0.461003 0
338 0.472933 -0.636579 0
339 0.481355 0.542326 0
340 0.478548 0.265681 0
341 0.478548 0.06928 0
342 0.478548 -0.797535 0
343 0.491182 0.37143 0
344 0.501009 -0.024712 0
345 0.506624 0.636037 0
346 0.510836 -0.195394 0
347 0.516451 -0.371821 0
348 0.522066 -0.544734 0
349 0.530489 0.733637 0
350 0.537508 -0.725911 0
351 0.543124 0.470967 0
352 0.547335 0.212573 0
353 0.55295 -0.110287 0
354 0.561373 0.129804 0
355 0.568392 -0.282898 0
356 0.569796 0.03982 0
357 0.569796 -0.458531 0
358 0.574008 -0.626775 0
359 0.578219 0.566776 0
360 0.583834 -0.036937 0
361 0.586642 0.400396 0
362 0.586642 0.301621 0
363 0.606296 0.669506 0
364 0.620334 -0.373424 0
365 0.621738 -0.542463 0
366 0.623141 -0.691674 0
367 0.625949 -0.190851 0
368 0.639987 0.196139 0
369 0.64841 0.485089 0
370 0.64841 0.091726 0
371 0.64841 -0.090486 0
372 0.654026 0.00054 0
373 0.668064 0.37624 0
374 0.669468 -0.290555 0
375 0.675083 0.599364 0
376 0.672275 -0.461003 0
377 0.672275 -0.623174 0
378 0.693333 0.282475 0
379 0.721409 -0.225081 0
380 0.722813 -0.378702 0
381 0.727024 -0.142553 0
382 0.727024 -0.547754 0
383 0.729832 0.210088 0
384 0.728428 0.134279 0
385 0.734043 0.044671 0
386 0.734043 -0.048561 0
387 0.738255 0.437766 0
388 0.741062 0.533628 0
389 0.76212 0.347398 0
390 0.769139 -0.296868 0
391 0.777562 -0.466975 0
392 0.7916 0.262915 0
393 0.805638 0.479919 0
394 0.80985 0.176085 0
395 0.816869 0.089281 0
396 0.816869 -0.099999 0
397 0.815465 -0.202876 0
398 0.819676 -0.003669 0
399 0.822484 -0.382803 0
400 0.828099 0.404498 0
401 0.858983 0.31899 0
402 0.864599 -0.29795 0
403 0.884252 0.230289 0
404 0.901098 0.139624 0
405 0.902502 -0.143956 0
406 0.902502 -0.225322 0
407 0.908117 0.046647 0
408 0.908117 -0.048982 0
