# produced by wright2006_nodes.py disk --radius 1; nodes of Wright and Fornberg (2006), doi:10.1016/j.jcp.2005.05.030, read off the paper's figures
200 2 0 1
0 -0.9952690308296088 -0.09715737888339172 1
1 -0.9765548414636187 -0.21526876599722217 1
2 -0.9460466936466531 -0.3240303279636578 1
3 -0.9025846442791229 -0.4305124387419361 1
4 -0.8466237473561138 -0.5321919112619914 1
5 -0.7771311001263129 -0.6293387428217547 1
6 -0.7037535129394076 -0.7104442223182923 1
7 -0.6222736692259314 -0.7827997704318113 1
8 -0.5308317352967603 -0.8474772379254975 1
9 -0.43176006319118265 -0.9019884965082126 1
10 -0.3316646755217935 -0.9433973410027313 1
11 -0.22774988988259798 -0.9737196658476527 1
12 -0.12365755326760287 -0.9923249515757778 1
13 -0.01968598217372313 -0.9998062122760869 1
14 0.08861749491440299 -0.9960657305595328 1
15 0.19274423620067196 -0.9812490302728558 1
16 0.2980184122239391 -0.9545601217186492 1
17 0.39813403542142756 -0.9173272534047211 1
18 0.4929165327546847 -0.8700766010743535 1
19 0.5805311293442005 -0.8142380535582621 1
20 0.6657787275858381 -0.7461492383526116 1
21 0.7400619092582476 -0.6725387501587083 1
22 0.8076791335991799 -0.5896222664965073 1
23 0.8659631894939774 -0.5001077428328997 1
24 0.9143086856878317 -0.4050180579625921 1
25 0.9516242336125723 -0.3072642478409822 1
26 0.9790610940035491 -0.20356663333801434 1
27 0.9950956373357933 -0.09891750378609007 1
28 0.9999812304639565 0.006126884999052661 1
29 0.9931986808257702 0.1164318702329806 1
30 0.9757800687276793 0.21875387419153372 1
31 0.9466486586364545 0.3222674620587712 1
32 0.9079571005184659 0.41906312605393997 1
33 0.8563532809507614 0.5163904125803134 1
34 0.7945283608010686 0.6072270447557214 1
35 0.7220322132173286 0.6918594388143348 1
36 0.6395984195639781 0.7687092179044437 1
37 0.5479064237989935 0.8365396289236976 1
38 0.44960652937674356 0.8932267174361722 1
39 0.34582477279086843 0.9382991135688791 1
40 0.22315236631999777 0.9747835767008929 1
41 0.10810097363425825 0.9941399194777992 1
42 -0.011235290807593596 0.9999368821283016 1
43 -0.13901967758335426 0.9902896188714796 1
44 -0.25776576631429937 0.9662074361732071 1
45 -0.3644653796555028 0.9312169387594764 1
46 -0.47996835084013295 0.8772858041663522 1
47 -0.5824628680931109 0.8128573105365708 1
48 -0.6718616300537653 0.7406766838921672 1
49 -0.7532795284412542 0.6577005032925864 1
50 -0.8286269727582624 0.5598011611433813 1
51 -0.889768106701563 0.4564128791968032 1
52 -0.9366785284407428 0.3501904258515423 1
53 -0.9701320478105906 0.24257743054709316 1
54 -0.9913601620824574 0.13116794210417293 1
55 -0.9999166006354752 0.01291478894893493 1
56 -0.887484 0.035286 0
57 -0.884599 -0.117145 0
58 -0.866544 0.180724 0
59 -0.847585 -0.274091 0
60 -0.825492 0.312658 0
61 -0.78813 -0.407232 0
62 -0.774958 0.440836 0
63 -0.766303 -0.040231 0
64 -0.763676 -0.174231 0
65 -0.754677 0.102247 0
66 -0.718884 -0.521905 0
67 -0.704269 0.55411 0
68 -0.706093 0.230657 0
69 -0.699314 -0.301923 0
70 -0.671088 0.359726 0
71 -0.629293 -0.006188 0
72 -0.630312 -0.160908 0
73 -0.627809 -0.420609 0
74 -0.622038 -0.610798 0
75 -0.598786 0.113516 0
76 -0.596566 0.648885 0
77 -0.590795 0.497852 0
78 -0.549279 0.246269 0
79 -0.549822 -0.29771 0
80 -0.526442 -0.711075 0
81 -0.524433 0.38318 0
82 -0.522496 -0.505914 0
83 -0.497084 -0.137993 0
84 -0.492583 0.739692 0
85 -0.475384 0.573369 0
86 -0.472004 0.001723 0
87 -0.444782 0.154944 0
88 -0.446036 -0.624782 0
89 -0.429219 -0.394358 0
90 -0.405901 -0.249747 0
91 -0.402375 -0.793007 0
92 -0.398617 0.448618 0
93 -0.39949 0.292189 0
94 -0.375347 0.668783 0
95 -0.371513 0.816699 0
96 -0.350195 -0.517284 0
97 -0.339196 -0.085145 0
98 -0.324227 0.064471 0
99 -0.322351 -0.695116 0
100 -0.304488 0.544239 0
101 -0.273178 -0.358826 0
102 -0.270034 0.362523 0
103 -0.266979 0.205814 0
104 -0.264263 -0.222029 0
105 -0.261873 0.743979 0
106 -0.255608 -0.841542 0
107 -0.226373 -0.608412 0
108 -0.209443 0.864566 0
109 -0.202271 -0.47327 0
110 -0.189246 0.621236 0
111 -0.183306 -0.104642 0
112 -0.17482 0.066051 0
113 -0.167606 0.473 0
114 -0.168667 -0.742663 0
115 -0.133024 0.321049 0
116 -0.128273 -0.271962 0
117 -0.118557 0.744299 0
118 -0.102688 -0.868112 0
119 -0.098401 0.192391 0
120 -0.087634 -0.598394 0
121 -0.083974 0.007796 0
122 -0.073835 -0.420609 0
123 -0.070062 0.891265 0
124 -0.051134 0.583066 0
125 -0.024785 -0.731064 0
126 -0.021518 0.432856 0
127 -0.012501 -0.152106 0
128 0.004238 0.776381 0
129 0.009838 -0.305936 0
130 0.028593 0.296796 0
131 0.02715 -0.5185 0
132 0.035891 0.001558 0
133 0.035806 -0.876503 0
134 0.047729 0.161557 0
135 0.067162 0.652989 0
136 0.081589 0.890725 0
137 0.104794 0.508212 0
138 0.106495 -0.760432 0
139 0.110441 -0.622397 0
140 0.122106 -0.414764 0
141 0.143189 -0.254376 0
142 0.150723 0.774745 0
143 0.155357 -0.107964 0
144 0.157158 0.370831 0
145 0.168529 0.050669 0
146 0.194878 -0.857336 0
147 0.198125 0.219881 0
148 0.208838 0.622799 0
149 0.228861 -0.535031 0
150 0.239218 -0.701697 0
151 0.252202 0.864566 0
152 0.252202 -0.363272 0
153 0.266629 0.493977 0
154 0.284322 0.734099 0
155 0.290093 -0.207633 0
156 0.301252 0.098216 0
157 0.306764 0.354382 0
158 0.309908 -0.055614 0
159 0.324961 -0.810958 0
160 0.353814 -0.634754 0
161 0.362225 -0.478932 0
162 0.3719 0.62591 0
163 0.37024 0.231319 0
164 0.399352 0.787651 0
165 0.400794 -0.335303 0
166 0.410808 0.471766 0
167 0.433975 -0.185669 0
168 0.443013 0.088015 0
169 0.445134 -0.74546 0
170 0.468598 -0.05002 0
171 0.48253 0.349617 0
172 0.482766 -0.576984 0
173 0.500078 0.575337 0
174 0.50988 0.715061 0
175 0.514933 -0.443066 0
176 0.520703 0.214205 0
177 0.543357 -0.28331 0
178 0.56237 -0.679322 0
179 0.584637 0.464427 0
180 0.588296 0.055343 0
181 0.592835 -0.13261 0
182 0.622961 0.626829 0
183 0.639457 0.341363 0
184 0.638915 -0.566212 0
185 0.642097 -0.398645 0
186 0.657396 0.196898 0
187 0.688262 -0.263571 0
188 0.705573 -0.018267 0
189 0.712216 0.521338 0
190 0.740558 -0.48214 0
191 0.745967 -0.143304 0
192 0.754241 0.105208 0
193 0.775881 0.411468 0
194 0.778067 0.287006 0
195 0.797436 -0.353319 0
196 0.851846 -0.226544 0
197 0.858281 0.194626 0
198 0.866767 -0.077989 0
199 0.876866 0.050669 0
