# produced by wright2006_nodes.py cylinder --hole 0.4 --box 0.6 --steps 15; nodes of Wright and Fornberg (2006), doi:10.1016/j.jcp.2005.05.030, read off the paper's figures
892 2 0 1
0 -1.0 -0.066666666667 4
1 -1.0 -0.133333333333 4
2 -1.0 -0.2 4
3 -1.0 -0.266666666667 4
4 -1.0 -0.333333333333 4
5 -1.0 -0.4 4
6 -1.0 -0.466666666667 4
7 -1.0 -0.533333333333 4
8 -1.0 -0.6 4
9 -1.0 -0.666666666667 4
10 -1.0 -0.733333333333 4
11 -1.0 -0.8 4
12 -1.0 -0.866666666667 4
13 -1.0 -0.933333333333 4
14 -1.0 -1.0 5
15 -0.933333333333 -1.0 1
16 -0.866666666667 -1.0 1
17 -0.8 -1.0 1
18 -0.733333333333 -1.0 1
19 -0.666666666667 -1.0 1
20 -0.6 -1.0 1
21 -0.533333333333 -1.0 1
22 -0.466666666667 -1.0 1
23 -0.4 -1.0 1
24 -0.333333333333 -1.0 1
25 -0.266666666667 -1.0 1
26 -0.2 -1.0 1
27 -0.133333333333 -1.0 1
28 -0.066666666667 -1.0 1
29 0.0 -1.0 1
30 0.066666666667 -1.0 1
31 0.133333333333 -1.0 1
32 0.2 -1.0 1
33 0.266666666667 -1.0 1
34 0.333333333333 -1.0 1
35 0.4 -1.0 1
36 0.466666666667 -1.0 1
37 0.533333333333 -1.0 1
38 0.6 -1.0 1
39 0.666666666667 -1.0 1
40 0.733333333333 -1.0 1
41 0.8 -1.0 1
42 0.866666666667 -1.0 1
43 0.933333333333 -1.0 1
44 1.0 -1.0 5
45 1.0 -0.933333333333 2
46 1.0 -0.866666666667 2
47 1.0 -0.8 2
48 1.0 -0.733333333333 2
49 1.0 -0.666666666667 2
50 1.0 -0.6 2
51 1.0 -0.533333333333 2
52 1.0 -0.466666666667 2
53 1.0 -0.4 2
54 1.0 -0.333333333333 2
55 1.0 -0.266666666667 2
56 1.0 -0.2 2
57 1.0 -0.133333333333 2
58 1.0 -0.066666666667 2
59 1.0 0.0 2
60 1.0 0.066666666667 2
61 1.0 0.133333333333 2
62 1.0 0.2 2
63 1.0 0.266666666667 2
64 1.0 0.333333333333 2
65 1.0 0.4 2
66 1.0 0.466666666667 2
67 1.0 0.533333333333 2
68 1.0 0.6 2
69 1.0 0.666666666667 2
70 1.0 0.733333333333 2
71 1.0 0.8 2
72 1.0 0.866666666667 2
73 1.0 0.933333333333 2
74 1.0 1.0 5
75 0.933333333333 1.0 3
76 0.866666666667 1.0 3
77 0.8 1.0 3
78 0.733333333333 1.0 3
79 0.666666666667 1.0 3
80 0.6 1.0 3
81 0.533333333333 1.0 3
82 0.466666666667 1.0 3
83 0.4 1.0 3
84 0.333333333333 1.0 3
85 0.266666666667 1.0 3
86 0.2 1.0 3
87 0.133333333333 1.0 3
88 0.066666666667 1.0 3
89 0.0 1.0 3
90 -0.066666666667 1.0 3
91 -0.133333333333 1.0 3
92 -0.2 1.0 3
93 -0.266666666667 1.0 3
94 -0.333333333333 1.0 3
95 -0.4 1.0 3
96 -0.466666666667 1.0 3
97 -0.533333333333 1.0 3
98 -0.6 1.0 3
99 -0.666666666667 1.0 3
100 -0.733333333333 1.0 3
101 -0.8 1.0 3
102 -0.866666666667 1.0 3
103 -0.933333333333 1.0 3
104 -1.0 1.0 5
105 -1.0 0.933333333333 4
106 -1.0 0.866666666667 4
107 -1.0 0.8 4
108 -1.0 0.733333333333 4
109 -1.0 0.666666666667 4
110 -1.0 0.6 4
111 -1.0 0.533333333333 4
112 -1.0 0.466666666667 4
113 -1.0 0.4 4
114 -1.0 0.333333333333 4
115 -1.0 0.266666666667 4
116 -1.0 0.2 4
117 -1.0 0.133333333333 4
118 -1.0 0.066666666667 4
119 -1.0 0.0 4
120 -0.3962107728978384 -0.05492743794951245 6
121 -0.3838976726551746 -0.1123502422335635 6
122 -0.3605325166492448 -0.17325214122359944 6
123 -0.3284619897539726 -0.22828210899424692 6
124 -0.28284271247461906 -0.28284271247461906 6
125 -0.22828210899424692 -0.3284619897539726 6
126 -0.17325214122359944 -0.3605325166492448 6
127 -0.1123502422335635 -0.3838976726551746 6
128 -0.05492743794951245 -0.3962107728978384 6
129 0.0 -0.4 6
130 0.05492743794951245 -0.3962107728978384 6
131 0.1123502422335635 -0.3838976726551746 6
132 0.17325214122359944 -0.3605325166492448 6
133 0.22828210899424692 -0.3284619897539726 6
134 0.28284271247461906 -0.28284271247461906 6
135 0.3284619897539726 -0.22828210899424692 6
136 0.3605325166492448 -0.17325214122359944 6
137 0.3838976726551746 -0.1123502422335635 6
138 0.3962107728978384 -0.05492743794951245 6
139 0.4 0.0 6
140 0.3962107728978384 0.05492743794951245 6
141 0.3838976726551746 0.1123502422335635 6
142 0.3605325166492448 0.17325214122359944 6
143 0.3284619897539726 0.22828210899424692 6
144 0.28284271247461906 0.28284271247461906 6
145 0.22828210899424692 0.3284619897539726 6
146 0.17325214122359944 0.3605325166492448 6
147 0.1123502422335635 0.3838976726551746 6
148 0.05492743794951245 0.3962107728978384 6
149 0.0 0.4 6
150 -0.05492743794951245 0.3962107728978384 6
151 -0.1123502422335635 0.3838976726551746 6
152 -0.17325214122359944 0.3605325166492448 6
153 -0.22828210899424692 0.3284619897539726 6
154 -0.28284271247461906 0.28284271247461906 6
155 -0.3284619897539726 0.22828210899424692 6
156 -0.3605325166492448 0.17325214122359944 6
157 -0.3838976726551746 0.1123502422335635 6
158 -0.3962107728978384 0.05492743794951245 6
159 -0.4 0.0 6
160 -0.933333333333 -0.933333333333 0
161 -0.866666666667 -0.933333333333 0
162 -0.8 -0.933333333333 0
163 -0.733333333333 -0.933333333333 0
164 -0.666666666667 -0.933333333333 0
165 -0.6 -0.933333333333 0
166 -0.533333333333 -0.933333333333 0
167 -0.466666666667 -0.933333333333 0
168 -0.4 -0.933333333333 0
169 -0.333333333333 -0.933333333333 0
170 -0.266666666667 -0.933333333333 0
171 -0.2 -0.933333333333 0
172 -0.133333333333 -0.933333333333 0
173 -0.066666666667 -0.933333333333 0
174 0.0 -0.933333333333 0
175 0.066666666667 -0.933333333333 0
176 0.133333333333 -0.933333333333 0
177 0.2 -0.933333333333 0
178 0.266666666667 -0.933333333333 0
179 0.333333333333 -0.933333333333 0
180 0.4 -0.933333333333 0
181 0.466666666667 -0.933333333333 0
182 0.533333333333 -0.933333333333 0
183 0.6 -0.933333333333 0
184 0.666666666667 -0.933333333333 0
185 0.733333333333 -0.933333333333 0
186 0.8 -0.933333333333 0
187 0.866666666667 -0.933333333333 0
188 0.933333333333 -0.933333333333 0
189 -0.933333333333 -0.866666666667 0
190 -0.866666666667 -0.866666666667 0
191 -0.8 -0.866666666667 0
192 -0.733333333333 -0.866666666667 0
193 -0.666666666667 -0.866666666667 0
194 -0.6 -0.866666666667 0
195 -0.533333333333 -0.866666666667 0
196 -0.466666666667 -0.866666666667 0
197 -0.4 -0.866666666667 0
198 -0.333333333333 -0.866666666667 0
199 -0.266666666667 -0.866666666667 0
200 -0.2 -0.866666666667 0
201 -0.133333333333 -0.866666666667 0
202 -0.066666666667 -0.866666666667 0
203 0.0 -0.866666666667 0
204 0.066666666667 -0.866666666667 0
205 0.133333333333 -0.866666666667 0
206 0.2 -0.866666666667 0
207 0.266666666667 -0.866666666667 0
208 0.333333333333 -0.866666666667 0
209 0.4 -0.866666666667 0
210 0.466666666667 -0.866666666667 0
211 0.533333333333 -0.866666666667 0
212 0.6 -0.866666666667 0
213 0.666666666667 -0.866666666667 0
214 0.733333333333 -0.866666666667 0
215 0.8 -0.866666666667 0
216 0.866666666667 -0.866666666667 0
217 0.933333333333 -0.866666666667 0
218 -0.933333333333 -0.8 0
219 -0.866666666667 -0.8 0
220 -0.8 -0.8 0
221 -0.733333333333 -0.8 0
222 -0.666666666667 -0.8 0
223 -0.6 -0.8 0
224 -0.533333333333 -0.8 0
225 -0.466666666667 -0.8 0
226 -0.4 -0.8 0
227 -0.333333333333 -0.8 0
228 -0.266666666667 -0.8 0
229 -0.2 -0.8 0
230 -0.133333333333 -0.8 0
231 -0.066666666667 -0.8 0
232 0.0 -0.8 0
233 0.066666666667 -0.8 0
234 0.133333333333 -0.8 0
235 0.2 -0.8 0
236 0.266666666667 -0.8 0
237 0.333333333333 -0.8 0
238 0.4 -0.8 0
239 0.466666666667 -0.8 0
240 0.533333333333 -0.8 0
241 0.6 -0.8 0
242 0.666666666667 -0.8 0
243 0.733333333333 -0.8 0
244 0.8 -0.8 0
245 0.866666666667 -0.8 0
246 0.933333333333 -0.8 0
247 -0.933333333333 -0.733333333333 0
248 -0.866666666667 -0.733333333333 0
249 -0.8 -0.733333333333 0
250 -0.733333333333 -0.733333333333 0
251 -0.666666666667 -0.733333333333 0
252 -0.6 -0.733333333333 0
253 -0.533333333333 -0.733333333333 0
254 -0.466666666667 -0.733333333333 0
255 -0.4 -0.733333333333 0
256 -0.333333333333 -0.733333333333 0
257 -0.266666666667 -0.733333333333 0
258 -0.2 -0.733333333333 0
259 -0.133333333333 -0.733333333333 0
260 -0.066666666667 -0.733333333333 0
261 0.0 -0.733333333333 0
262 0.066666666667 -0.733333333333 0
263 0.133333333333 -0.733333333333 0
264 0.2 -0.733333333333 0
265 0.266666666667 -0.733333333333 0
266 0.333333333333 -0.733333333333 0
267 0.4 -0.733333333333 0
268 0.466666666667 -0.733333333333 0
269 0.533333333333 -0.733333333333 0
270 0.6 -0.733333333333 0
271 0.666666666667 -0.733333333333 0
272 0.733333333333 -0.733333333333 0
273 0.8 -0.733333333333 0
274 0.866666666667 -0.733333333333 0
275 0.933333333333 -0.733333333333 0
276 -0.933333333333 -0.666666666667 0
277 -0.866666666667 -0.666666666667 0
278 -0.8 -0.666666666667 0
279 -0.733333333333 -0.666666666667 0
280 -0.666666666667 -0.666666666667 0
281 -0.6 -0.666666666667 0
282 -0.533333333333 -0.666666666667 0
283 -0.466666666667 -0.666666666667 0
284 -0.4 -0.666666666667 0
285 -0.333333333333 -0.666666666667 0
286 -0.266666666667 -0.666666666667 0
287 -0.2 -0.666666666667 0
288 -0.133333333333 -0.666666666667 0
289 -0.066666666667 -0.666666666667 0
290 0.0 -0.666666666667 0
291 0.066666666667 -0.666666666667 0
292 0.133333333333 -0.666666666667 0
293 0.2 -0.666666666667 0
294 0.266666666667 -0.666666666667 0
295 0.333333333333 -0.666666666667 0
296 0.4 -0.666666666667 0
297 0.466666666667 -0.666666666667 0
298 0.533333333333 -0.666666666667 0
299 0.6 -0.666666666667 0
300 0.666666666667 -0.666666666667 0
301 0.733333333333 -0.666666666667 0
302 0.8 -0.666666666667 0
303 0.866666666667 -0.666666666667 0
304 0.933333333333 -0.666666666667 0
305 -0.933333333333 -0.6 0
306 -0.866666666667 -0.6 0
307 -0.8 -0.6 0
308 -0.733333333333 -0.6 0
309 -0.666666666667 -0.6 0
310 -0.6 -0.6 0
311 -0.533333333333 -0.6 0
312 -0.466666666667 -0.6 0
313 -0.4 -0.6 0
314 -0.333333333333 -0.6 0
315 -0.266666666667 -0.6 0
316 -0.2 -0.6 0
317 -0.133333333333 -0.6 0
318 -0.066666666667 -0.6 0
319 0.0 -0.6 0
320 0.066666666667 -0.6 0
321 0.133333333333 -0.6 0
322 0.2 -0.6 0
323 0.266666666667 -0.6 0
324 0.333333333333 -0.6 0
325 0.4 -0.6 0
326 0.466666666667 -0.6 0
327 0.533333333333 -0.6 0
328 0.6 -0.6 0
329 0.666666666667 -0.6 0
330 0.733333333333 -0.6 0
331 0.8 -0.6 0
332 0.866666666667 -0.6 0
333 0.933333333333 -0.6 0
334 -0.933333333333 -0.533333333333 0
335 -0.866666666667 -0.533333333333 0
336 -0.8 -0.533333333333 0
337 -0.733333333333 -0.533333333333 0
338 -0.666666666667 -0.533333333333 0
339 -0.6 -0.533333333333 0
340 0.6 -0.533333333333 0
341 0.666666666667 -0.533333333333 0
342 0.733333333333 -0.533333333333 0
343 0.8 -0.533333333333 0
344 0.866666666667 -0.533333333333 0
345 0.933333333333 -0.533333333333 0
346 -0.933333333333 -0.466666666667 0
347 -0.866666666667 -0.466666666667 0
348 -0.8 -0.466666666667 0
349 -0.733333333333 -0.466666666667 0
350 -0.666666666667 -0.466666666667 0
351 -0.6 -0.466666666667 0
352 0.6 -0.466666666667 0
353 0.666666666667 -0.466666666667 0
354 0.733333333333 -0.466666666667 0
355 0.8 -0.466666666667 0
356 0.866666666667 -0.466666666667 0
357 0.933333333333 -0.466666666667 0
358 -0.933333333333 -0.4 0
359 -0.866666666667 -0.4 0
360 -0.8 -0.4 0
361 -0.733333333333 -0.4 0
362 -0.666666666667 -0.4 0
363 -0.6 -0.4 0
364 0.6 -0.4 0
365 0.666666666667 -0.4 0
366 0.733333333333 -0.4 0
367 0.8 -0.4 0
368 0.866666666667 -0.4 0
369 0.933333333333 -0.4 0
370 -0.933333333333 -0.333333333333 0
371 -0.866666666667 -0.333333333333 0
372 -0.8 -0.333333333333 0
373 -0.733333333333 -0.333333333333 0
374 -0.666666666667 -0.333333333333 0
375 -0.6 -0.333333333333 0
376 0.6 -0.333333333333 0
377 0.666666666667 -0.333333333333 0
378 0.733333333333 -0.333333333333 0
379 0.8 -0.333333333333 0
380 0.866666666667 -0.333333333333 0
381 0.933333333333 -0.333333333333 0
382 -0.933333333333 -0.266666666667 0
383 -0.866666666667 -0.266666666667 0
384 -0.8 -0.266666666667 0
385 -0.733333333333 -0.266666666667 0
386 -0.666666666667 -0.266666666667 0
387 -0.6 -0.266666666667 0
388 0.6 -0.266666666667 0
389 0.666666666667 -0.266666666667 0
390 0.733333333333 -0.266666666667 0
391 0.8 -0.266666666667 0
392 0.866666666667 -0.266666666667 0
393 0.933333333333 -0.266666666667 0
394 -0.933333333333 -0.2 0
395 -0.866666666667 -0.2 0
396 -0.8 -0.2 0
397 -0.733333333333 -0.2 0
398 -0.666666666667 -0.2 0
399 -0.6 -0.2 0
400 0.6 -0.2 0
401 0.666666666667 -0.2 0
402 0.733333333333 -0.2 0
403 0.8 -0.2 0
404 0.866666666667 -0.2 0
405 0.933333333333 -0.2 0
406 -0.933333333333 -0.133333333333 0
407 -0.866666666667 -0.133333333333 0
408 -0.8 -0.133333333333 0
409 -0.733333333333 -0.133333333333 0
410 -0.666666666667 -0.133333333333 0
411 -0.6 -0.133333333333 0
412 0.6 -0.133333333333 0
413 0.666666666667 -0.133333333333 0
414 0.733333333333 -0.133333333333 0
415 0.8 -0.133333333333 0
416 0.866666666667 -0.133333333333 0
417 0.933333333333 -0.133333333333 0
418 -0.933333333333 -0.066666666667 0
419 -0.866666666667 -0.066666666667 0
420 -0.8 -0.066666666667 0
421 -0.733333333333 -0.066666666667 0
422 -0.666666666667 -0.066666666667 0
423 -0.6 -0.066666666667 0
424 0.6 -0.066666666667 0
425 0.666666666667 -0.066666666667 0
426 0.733333333333 -0.066666666667 0
427 0.8 -0.066666666667 0
428 0.866666666667 -0.066666666667 0
429 0.933333333333 -0.066666666667 0
430 -0.933333333333 0.0 0
431 -0.866666666667 0.0 0
432 -0.8 0.0 0
433 -0.733333333333 0.0 0
434 -0.666666666667 0.0 0
435 -0.6 0.0 0
436 0.6 0.0 0
437 0.666666666667 0.0 0
438 0.733333333333 0.0 0
439 0.8 0.0 0
440 0.866666666667 0.0 0
441 0.933333333333 0.0 0
442 -0.933333333333 0.066666666667 0
443 -0.866666666667 0.066666666667 0
444 -0.8 0.066666666667 0
445 -0.733333333333 0.066666666667 0
446 -0.666666666667 0.066666666667 0
447 -0.6 0.066666666667 0
448 0.6 0.066666666667 0
449 0.666666666667 0.066666666667 0
450 0.733333333333 0.066666666667 0
451 0.8 0.066666666667 0
452 0.866666666667 0.066666666667 0
453 0.933333333333 0.066666666667 0
454 -0.933333333333 0.133333333333 0
455 -0.866666666667 0.133333333333 0
456 -0.8 0.133333333333 0
457 -0.733333333333 0.133333333333 0
458 -0.666666666667 0.133333333333 0
459 -0.6 0.133333333333 0
460 0.6 0.133333333333 0
461 0.666666666667 0.133333333333 0
462 0.733333333333 0.133333333333 0
463 0.8 0.133333333333 0
464 0.866666666667 0.133333333333 0
465 0.933333333333 0.133333333333 0
466 -0.933333333333 0.2 0
467 -0.866666666667 0.2 0
468 -0.8 0.2 0
469 -0.733333333333 0.2 0
470 -0.666666666667 0.2 0
471 -0.6 0.2 0
472 0.6 0.2 0
473 0.666666666667 0.2 0
474 0.733333333333 0.2 0
475 0.8 0.2 0
476 0.866666666667 0.2 0
477 0.933333333333 0.2 0
478 -0.933333333333 0.266666666667 0
479 -0.866666666667 0.266666666667 0
480 -0.8 0.266666666667 0
481 -0.733333333333 0.266666666667 0
482 -0.666666666667 0.266666666667 0
483 -0.6 0.266666666667 0
484 0.6 0.266666666667 0
485 0.666666666667 0.266666666667 0
486 0.733333333333 0.266666666667 0
487 0.8 0.266666666667 0
488 0.866666666667 0.266666666667 0
489 0.933333333333 0.266666666667 0
490 -0.933333333333 0.333333333333 0
491 -0.866666666667 0.333333333333 0
492 -0.8 0.333333333333 0
493 -0.733333333333 0.333333333333 0
494 -0.666666666667 0.333333333333 0
495 -0.6 0.333333333333 0
496 0.6 0.333333333333 0
497 0.666666666667 0.333333333333 0
498 0.733333333333 0.333333333333 0
499 0.8 0.333333333333 0
500 0.866666666667 0.333333333333 0
501 0.933333333333 0.333333333333 0
502 -0.933333333333 0.4 0
503 -0.866666666667 0.4 0
504 -0.8 0.4 0
505 -0.733333333333 0.4 0
506 -0.666666666667 0.4 0
507 -0.6 0.4 0
508 0.6 0.4 0
509 0.666666666667 0.4 0
510 0.733333333333 0.4 0
511 0.8 0.4 0
512 0.866666666667 0.4 0
513 0.933333333333 0.4 0
514 -0.933333333333 0.466666666667 0
515 -0.866666666667 0.466666666667 0
516 -0.8 0.466666666667 0
517 -0.733333333333 0.466666666667 0
518 -0.666666666667 0.466666666667 0
519 -0.6 0.466666666667 0
520 0.6 0.466666666667 0
521 0.666666666667 0.466666666667 0
522 0.733333333333 0.466666666667 0
523 0.8 0.466666666667 0
524 0.866666666667 0.466666666667 0
525 0.933333333333 0.466666666667 0
526 -0.933333333333 0.533333333333 0
527 -0.866666666667 0.533333333333 0
528 -0.8 0.533333333333 0
529 -0.733333333333 0.533333333333 0
530 -0.666666666667 0.533333333333 0
531 -0.6 0.533333333333 0
532 0.6 0.533333333333 0
533 0.666666666667 0.533333333333 0
534 0.733333333333 0.533333333333 0
535 0.8 0.533333333333 0
536 0.866666666667 0.533333333333 0
537 0.933333333333 0.533333333333 0
538 -0.933333333333 0.6 0
539 -0.866666666667 0.6 0
540 -0.8 0.6 0
541 -0.733333333333 0.6 0
542 -0.666666666667 0.6 0
543 -0.6 0.6 0
544 -0.533333333333 0.6 0
545 -0.466666666667 0.6 0
546 -0.4 0.6 0
547 -0.333333333333 0.6 0
548 -0.266666666667 0.6 0
549 -0.2 0.6 0
550 -0.133333333333 0.6 0
551 -0.066666666667 0.6 0
552 0.0 0.6 0
553 0.066666666667 0.6 0
554 0.133333333333 0.6 0
555 0.2 0.6 0
556 0.266666666667 0.6 0
557 0.333333333333 0.6 0
558 0.4 0.6 0
559 0.466666666667 0.6 0
560 0.533333333333 0.6 0
561 0.6 0.6 0
562 0.666666666667 0.6 0
563 0.733333333333 0.6 0
564 0.8 0.6 0
565 0.866666666667 0.6 0
566 0.933333333333 0.6 0
567 -0.933333333333 0.666666666667 0
568 -0.866666666667 0.666666666667 0
569 -0.8 0.666666666667 0
570 -0.733333333333 0.666666666667 0
571 -0.666666666667 0.666666666667 0
572 -0.6 0.666666666667 0
573 -0.533333333333 0.666666666667 0
574 -0.466666666667 0.666666666667 0
575 -0.4 0.666666666667 0
576 -0.333333333333 0.666666666667 0
577 -0.266666666667 0.666666666667 0
578 -0.2 0.666666666667 0
579 -0.133333333333 0.666666666667 0
580 -0.066666666667 0.666666666667 0
581 0.0 0.666666666667 0
582 0.066666666667 0.666666666667 0
583 0.133333333333 0.666666666667 0
584 0.2 0.666666666667 0
585 0.266666666667 0.666666666667 0
586 0.333333333333 0.666666666667 0
587 0.4 0.666666666667 0
588 0.466666666667 0.666666666667 0
589 0.533333333333 0.666666666667 0
590 0.6 0.666666666667 0
591 0.666666666667 0.666666666667 0
592 0.733333333333 0.666666666667 0
593 0.8 0.666666666667 0
594 0.866666666667 0.666666666667 0
595 0.933333333333 0.666666666667 0
596 -0.933333333333 0.733333333333 0
597 -0.866666666667 0.733333333333 0
598 -0.8 0.733333333333 0
599 -0.733333333333 0.733333333333 0
600 -0.666666666667 0.733333333333 0
601 -0.6 0.733333333333 0
602 -0.533333333333 0.733333333333 0
603 -0.466666666667 0.733333333333 0
604 -0.4 0.733333333333 0
605 -0.333333333333 0.733333333333 0
606 -0.266666666667 0.733333333333 0
607 -0.2 0.733333333333 0
608 -0.133333333333 0.733333333333 0
609 -0.066666666667 0.733333333333 0
610 0.0 0.733333333333 0
611 0.066666666667 0.733333333333 0
612 0.133333333333 0.733333333333 0
613 0.2 0.733333333333 0
614 0.266666666667 0.733333333333 0
615 0.333333333333 0.733333333333 0
616 0.4 0.733333333333 0
617 0.466666666667 0.733333333333 0
618 0.533333333333 0.733333333333 0
619 0.6 0.733333333333 0
620 0.666666666667 0.733333333333 0
621 0.733333333333 0.733333333333 0
622 0.8 0.733333333333 0
623 0.866666666667 0.733333333333 0
624 0.933333333333 0.733333333333 0
625 -0.933333333333 0.8 0
626 -0.866666666667 0.8 0
627 -0.8 0.8 0
628 -0.733333333333 0.8 0
629 -0.666666666667 0.8 0
630 -0.6 0.8 0
631 -0.533333333333 0.8 0
632 -0.466666666667 0.8 0
633 -0.4 0.8 0
634 -0.333333333333 0.8 0
635 -0.266666666667 0.8 0
636 -0.2 0.8 0
637 -0.133333333333 0.8 0
638 -0.066666666667 0.8 0
639 0.0 0.8 0
640 0.066666666667 0.8 0
641 0.133333333333 0.8 0
642 0.2 0.8 0
643 0.266666666667 0.8 0
644 0.333333333333 0.8 0
645 0.4 0.8 0
646 0.466666666667 0.8 0
647 0.533333333333 0.8 0
648 0.6 0.8 0
649 0.666666666667 0.8 0
650 0.733333333333 0.8 0
651 0.8 0.8 0
652 0.866666666667 0.8 0
653 0.933333333333 0.8 0
654 -0.933333333333 0.866666666667 0
655 -0.866666666667 0.866666666667 0
656 -0.8 0.866666666667 0
657 -0.733333333333 0.866666666667 0
658 -0.666666666667 0.866666666667 0
659 -0.6 0.866666666667 0
660 -0.533333333333 0.866666666667 0
661 -0.466666666667 0.866666666667 0
662 -0.4 0.866666666667 0
663 -0.333333333333 0.866666666667 0
664 -0.266666666667 0.866666666667 0
665 -0.2 0.866666666667 0
666 -0.133333333333 0.866666666667 0
667 -0.066666666667 0.866666666667 0
668 0.0 0.866666666667 0
669 0.066666666667 0.866666666667 0
670 0.133333333333 0.866666666667 0
671 0.2 0.866666666667 0
672 0.266666666667 0.866666666667 0
673 0.333333333333 0.866666666667 0
674 0.4 0.866666666667 0
675 0.466666666667 0.866666666667 0
676 0.533333333333 0.866666666667 0
677 0.6 0.866666666667 0
678 0.666666666667 0.866666666667 0
679 0.733333333333 0.866666666667 0
680 0.8 0.866666666667 0
681 0.866666666667 0.866666666667 0
682 0.933333333333 0.866666666667 0
683 -0.933333333333 0.933333333333 0
684 -0.866666666667 0.933333333333 0
685 -0.8 0.933333333333 0
686 -0.733333333333 0.933333333333 0
687 -0.666666666667 0.933333333333 0
688 -0.6 0.933333333333 0
689 -0.533333333333 0.933333333333 0
690 -0.466666666667 0.933333333333 0
691 -0.4 0.933333333333 0
692 -0.333333333333 0.933333333333 0
693 -0.266666666667 0.933333333333 0
694 -0.2 0.933333333333 0
695 -0.133333333333 0.933333333333 0
696 -0.066666666667 0.933333333333 0
697 0.0 0.933333333333 0
698 0.066666666667 0.933333333333 0
699 0.133333333333 0.933333333333 0
700 0.2 0.933333333333 0
701 0.266666666667 0.933333333333 0
702 0.333333333333 0.933333333333 0
703 0.4 0.933333333333 0
704 0.466666666667 0.933333333333 0
705 0.533333333333 0.933333333333 0
706 0.6 0.933333333333 0
707 0.666666666667 0.933333333333 0
708 0.733333333333 0.933333333333 0
709 0.8 0.933333333333 0
710 0.866666666667 0.933333333333 0
711 0.933333333333 0.933333333333 0
712 -0.550494 0.478192 0
713 -0.550494 -0.478192 0
714 -0.548567 0.100491 0
715 -0.548567 -0.100491 0
716 -0.546986 0.546986 0
717 -0.546986 -0.546986 0
718 -0.53929 0.298693 0
719 -0.53971 0.231889 0
720 -0.53971 -0.231889 0
721 -0.53929 -0.298693 0
722 -0.536869 0.365942 0
723 -0.536906 0.16795 0
724 -0.536906 -0.16795 0
725 -0.536869 -0.365942 0
726 -0.53315 0.0 0
727 -0.52081 0.42505 0
728 -0.52081 -0.42505 0
729 -0.517376 0.052673 0
730 -0.517376 -0.052673 0
731 -0.494264 0.494264 0
732 -0.494264 -0.494264 0
733 -0.48789 0.123035 0
734 -0.48789 -0.123035 0
735 -0.480181 0.256001 0
736 -0.480181 -0.256001 0
737 -0.478192 0.550494 0
738 -0.477612 0.324041 0
739 -0.477612 -0.324041 0
740 -0.478192 -0.550494 0
741 -0.473548 0.194496 0
742 -0.473548 -0.194496 0
743 -0.466346 0.0 0
744 -0.463431 0.384249 0
745 -0.463431 -0.384249 0
746 -0.451572 0.0703 0
747 -0.451572 -0.0703 0
748 -0.440998 0.440998 0
749 -0.440998 -0.440998 0
750 -0.429732 0.147234 0
751 -0.429732 -0.147234 0
752 -0.42505 0.52081 0
753 -0.42505 -0.52081 0
754 -0.423308 0.274283 0
755 -0.423308 -0.274283 0
756 -0.409177 0.333379 0
757 -0.409177 -0.333379 0
758 -0.406743 0.216929 0
759 -0.406743 -0.216929 0
760 -0.388276 0.388276 0
761 -0.388276 -0.388276 0
762 -0.384249 0.463431 0
763 -0.384249 -0.463431 0
764 -0.365942 0.536869 0
765 -0.365942 -0.536869 0
766 -0.358777 0.277791 0
767 -0.358777 -0.277791 0
768 -0.335307 0.335307 0
769 -0.335307 -0.335307 0
770 -0.333379 0.409177 0
771 -0.333379 -0.409177 0
772 -0.324041 0.477612 0
773 -0.324041 -0.477612 0
774 -0.298693 0.53929 0
775 -0.298693 -0.53929 0
776 -0.277791 0.358777 0
777 -0.277791 -0.358777 0
778 -0.274283 0.423308 0
779 -0.274283 -0.423308 0
780 -0.256001 0.480181 0
781 -0.256001 -0.480181 0
782 -0.231889 0.53971 0
783 -0.231889 -0.53971 0
784 -0.216929 0.406743 0
785 -0.216929 -0.406743 0
786 -0.194496 0.473548 0
787 -0.194496 -0.473548 0
788 -0.16795 0.536906 0
789 -0.16795 -0.536906 0
790 -0.147234 0.429732 0
791 -0.147234 -0.429732 0
792 -0.123035 0.48789 0
793 -0.123035 -0.48789 0
794 -0.100491 0.548567 0
795 -0.100491 -0.548567 0
796 -0.0703 0.451572 0
797 -0.0703 -0.451572 0
798 -0.052673 0.517376 0
799 -0.052673 -0.517376 0
800 0.0 0.53315 0
801 0.0 0.466346 0
802 0.0 -0.466346 0
803 0.0 -0.53315 0
804 0.052673 0.517376 0
805 0.052673 -0.517376 0
806 0.0703 0.451572 0
807 0.0703 -0.451572 0
808 0.100491 0.548567 0
809 0.100491 -0.548567 0
810 0.123035 0.48789 0
811 0.123035 -0.48789 0
812 0.147234 0.429732 0
813 0.147234 -0.429732 0
814 0.16795 0.536906 0
815 0.16795 -0.536906 0
816 0.194496 0.473548 0
817 0.194496 -0.473548 0
818 0.216929 0.406743 0
819 0.216929 -0.406743 0
820 0.231889 0.53971 0
821 0.231889 -0.53971 0
822 0.256001 0.480181 0
823 0.256001 -0.480181 0
824 0.274283 0.423308 0
825 0.274283 -0.423308 0
826 0.277791 0.358777 0
827 0.277791 -0.358777 0
828 0.298693 0.53929 0
829 0.298693 -0.53929 0
830 0.324041 0.477612 0
831 0.324041 -0.477612 0
832 0.333379 0.409177 0
833 0.333379 -0.409177 0
834 0.335307 0.335307 0
835 0.335307 -0.335307 0
836 0.358777 0.277791 0
837 0.358777 -0.277791 0
838 0.365942 0.536869 0
839 0.365942 -0.536869 0
840 0.384249 0.463431 0
841 0.384249 -0.463431 0
842 0.388276 0.388276 0
843 0.388276 -0.388276 0
844 0.406743 0.216929 0
845 0.406743 -0.216929 0
846 0.409177 0.333379 0
847 0.409177 -0.333379 0
848 0.423308 0.274283 0
849 0.423308 -0.274283 0
850 0.42505 0.52081 0
851 0.42505 -0.52081 0
852 0.429732 0.147234 0
853 0.429732 -0.147234 0
854 0.440998 0.440998 0
855 0.440998 -0.440998 0
856 0.451572 0.0703 0
857 0.451572 -0.0703 0
858 0.463431 0.384249 0
859 0.463431 -0.384249 0
860 0.466346 0.0 0
861 0.473548 0.194496 0
862 0.473548 -0.194496 0
863 0.478192 0.550494 0
864 0.477612 0.324041 0
865 0.477612 -0.324041 0
866 0.478192 -0.550494 0
867 0.480181 0.256001 0
868 0.480181 -0.256001 0
869 0.48789 0.123035 0
870 0.48789 -0.123035 0
871 0.494264 0.494264 0
872 0.494264 -0.494264 0
873 0.517376 0.052673 0
874 0.517376 -0.052673 0
875 0.52081 0.42505 0
876 0.52081 -0.42505 0
877 0.53315 0.0 0
878 0.536869 0.365942 0
879 0.536906 0.16795 0
880 0.536906 -0.16795 0
881 0.536869 -0.365942 0
882 0.53929 0.298693 0
883 0.53971 0.231889 0
884 0.53971 -0.231889 0
885 0.53929 -0.298693 0
886 0.546986 0.546986 0
887 0.548567 0.100491 0
888 0.548567 -0.100491 0
889 0.546986 -0.546986 0
890 0.550494 0.478192 0
891 0.550494 -0.478192 0
